<?xml version="1.0" encoding="utf-8"?>
<!-- Generator: Adobe Illustrator 27.5.0, SVG Export Plug-In . SVG Version: 6.00 Build 0)  -->
<svg version="1.1" id="Layer_1" xmlns="http://www.w3.org/2000/svg" xmlns:xlink="http://www.w3.org/1999/xlink" x="0px" y="0px"
	 viewBox="0 0 2409.2 2409.2" style="enable-background:new 0 0 2409.2 2409.2;" xml:space="preserve">
<style type="text/css">
	.st0{fill:none;}
	.st1{fill:#FDF1DE;}
</style>
<g>
	<path class="st0" d="M1529.4,834.4h-2c-88.4,0-160.3-71.9-160.3-160.3v-16.9h-324.9v16.9c0,88.4-71.9,160.3-160.3,160.3h-2
		c-88.4,0-160.3-71.9-160.3-160.3v-16.9h-88.6c-34.2,0-61.8,27.7-61.9,61.9v1140.9c0,34.2,27.7,61.8,61.9,61.9h1147.3
		c34.2,0,61.8-27.7,61.9-61.9V719.1c0-34.2-27.7-61.8-61.9-61.9h-88.6v16.9C1689.7,762.5,1617.8,834.4,1529.4,834.4z"/>
	<path class="st0" d="M1527.3,714.4h2c22.3,0,40.3-18.1,40.3-40.3v-16.9H1487v16.9C1487.1,696.4,1505.1,714.4,1527.3,714.4z"/>
	<path class="st0" d="M922.2,527.7c0-22.3-18.1-40.3-40.3-40.3h-2c-22.3,0-40.3,18.1-40.3,40.3v9.5h82.6V527.7z"/>
	<path class="st0" d="M1569.7,527.7c0-22.3-18.1-40.3-40.3-40.3h-2c-22.3,0-40.3,18.1-40.3,40.3v9.5h82.6L1569.7,527.7z"/>
	<path class="st0" d="M879.8,714.4h2c22.3,0,40.3-18.1,40.3-40.3v-16.9h-82.6v16.9C839.5,696.4,857.6,714.4,879.8,714.4z"/>
	<path class="st1" d="M1778.2,537.2h-88.6v-9.5c0-88.4-71.9-160.3-160.3-160.3h-2c-88.4,0-160.3,71.9-160.3,160.3v9.5h-324.9v-9.5
		c0-88.4-71.9-160.3-160.3-160.3h-2c-88.4,0-160.3,71.9-160.3,160.3v9.5h-88.6c-100.3,0-181.9,81.6-181.9,181.9v1140.9
		c0,100.3,81.6,181.9,181.9,181.9h1147.3c100.3,0,181.9-81.6,181.9-181.9V719.1C1960.1,618.8,1878.5,537.2,1778.2,537.2z
		 M1487,657.2V527.7c0-22.3,18.1-40.3,40.3-40.3h2c22.3,0,40.3,18.1,40.3,40.3v146.4c0,22.3-18.1,40.3-40.3,40.3h-2
		c-22.3,0-40.3-18.1-40.3-40.3V657.2z M839.5,657.2V527.7c0-22.3,18.1-40.3,40.3-40.3h2c22.3,0,40.3,18.1,40.3,40.3v146.4
		c0,22.3-18.1,40.3-40.3,40.3h-2c-22.3,0-40.3-18.1-40.3-40.3L839.5,657.2z M630.9,657.2h88.6v16.9c0,88.4,71.9,160.3,160.3,160.3h2
		c88.4,0,160.3-71.9,160.3-160.3v-16.9H1367v16.9c0,88.4,71.9,160.3,160.3,160.3h2c88.4,0,160.3-71.9,160.3-160.3v-16.9h88.6
		c34.2,0,61.8,27.7,61.9,61.9v184.1H569.1V719.1C569.1,684.9,596.8,657.2,630.9,657.2L630.9,657.2z M1778.2,1921.8H630.9
		c-34.2,0-61.8-27.7-61.9-61.9v-836.8h1271.1v836.8C1840.1,1894.1,1812.4,1921.8,1778.2,1921.8z"/>
	<path class="st1" d="M1128.7,1701.1c-17.5,0-34.2-6.9-46.6-19.3l-199.7-199.7c-23.5-23.4-23.6-61.4-0.2-84.9
		c23.4-23.5,61.4-23.6,84.9-0.2c0.1,0.1,0.2,0.2,0.2,0.2l161.4,161.4l343.4-343.4c23.4-23.4,61.4-23.4,84.9,0s23.4,61.4,0,84.9l0,0
		l-381.7,381.7C1163,1694.2,1146.2,1701.1,1128.7,1701.1z"/>
</g>
</svg>
