<?xml version="1.0" encoding="utf-8"?>
<!-- Generator: Adobe Illustrator 27.5.0, SVG Export Plug-In . SVG Version: 6.00 Build 0)  -->
<svg version="1.1" id="Layer_1" xmlns="http://www.w3.org/2000/svg" xmlns:xlink="http://www.w3.org/1999/xlink" x="0px" y="0px"
	 viewBox="0 0 2409.2 2409.2" style="enable-background:new 0 0 2409.2 2409.2;" xml:space="preserve">
<style type="text/css">
	.st0{fill:#694C70;}
	.st1{fill:#FDF1DE;}
</style>
<circle class="st0" cx="1204.6" cy="1204.6" r="1175.6"/>
<g>
	<g>
		<path class="st1" d="M1636.2,2157.6c-23.3,0-45.5-12.7-59.9-35.1l-181.3-282.6c-62.5,12.7-126.4,19.1-190.5,19.1
			c-108.7,0-214.2-17.8-313.6-52.8c-96.7-34.1-183.7-83-258.7-145.4c-76-63.3-135.8-137.4-177.9-220.1
			c-44.2-87.1-66.7-179.8-66.7-275.6c0-95.8,22.4-188.5,66.7-275.6c42-82.8,101.9-156.8,177.9-220.1
			c74.9-62.4,162-111.3,258.7-145.4c99.4-35,205-52.8,313.6-52.8c108.7,0,214.2,17.8,313.6,52.8c96.7,34.1,183.7,83,258.7,145.4
			c76,63.3,135.8,137.4,177.9,220.1c44.2,87.1,66.6,179.8,66.6,275.6c0,87.7-18.9,173.1-56.3,254c-33,71.5-79.5,137.4-138.2,195.9
			l-118.3,478.6c-8.2,33.2-31.2,57.2-60,62.8C1644.5,2157.2,1640.3,2157.6,1636.2,2157.6z M1417.7,1721.5c16.4,0,32,8.7,41.7,23.8
			l165.7,258.2l104.1-421.1c0.8-15.2,7.1-29.4,17.6-39.4c55-52.2,97.8-111,127.3-174.8c30-65,45.2-133.3,45.2-203.2
			c0-76.4-18.1-150.8-53.7-220.9c-35.1-69.1-85.7-131.5-150.4-185.4c-65.7-54.7-142.5-97.8-228.1-128
			c-89.4-31.5-184.4-47.4-282.5-47.4c-98.1,0-193.1,16-282.5,47.4c-85.7,30.2-162.4,73.2-228.1,128
			C629.3,812.6,578.7,875,543.6,944.1c-35.6,70.2-53.7,144.5-53.7,220.9c0,76.4,18.1,150.8,53.7,220.9
			c35.1,69.1,85.7,131.5,150.4,185.4c65.7,54.7,142.5,97.8,228.1,128c89.4,31.5,184.4,47.4,282.5,47.4c68.3,0,136.3-8,202.2-23.9
			C1410.4,1722,1414,1721.5,1417.7,1721.5z M1729.1,1584.1C1729.1,1584.1,1729.1,1584.1,1729.1,1584.1
			C1729.1,1584.1,1729.1,1584.1,1729.1,1584.1z"/>
	</g>
</g>
</svg>
