<?xml version="1.0" encoding="utf-8"?>
<!-- Generator: Adobe Illustrator 27.5.0, SVG Export Plug-In . SVG Version: 6.00 Build 0)  -->
<svg version="1.1" id="Layer_1" xmlns="http://www.w3.org/2000/svg" xmlns:xlink="http://www.w3.org/1999/xlink" x="0px" y="0px"
	 viewBox="0 0 2409.2 2409.2" style="enable-background:new 0 0 2409.2 2409.2;" xml:space="preserve">
<style type="text/css">
	.st0{fill:#694C70;}
	.st1{fill:#FDF1DE;}
	.st2{fill:#FCF3E2;}
</style>
<circle class="st0" cx="1204.6" cy="1204.6" r="1167.7"/>
<g>
	<g>
		<path class="st1" d="M1633.4,2151.2c-23.2,0-45.2-12.7-59.5-34.9l-180.1-280.7c-62.1,12.6-125.6,19-189.3,19
			c-107.9,0-212.8-17.6-311.6-52.5c-96.1-33.8-182.5-82.4-256.9-144.4c-75.5-62.9-134.9-136.4-176.7-218.7
			c-43.9-86.5-66.2-178.6-66.2-273.8c0-95.2,22.3-187.3,66.2-273.8c41.7-82.2,101.2-155.8,176.7-218.7
			c74.4-62,160.9-110.6,256.9-144.4c98.8-34.8,203.6-52.5,311.6-52.5c107.9,0,212.8,17.6,311.6,52.5
			c96.1,33.8,182.5,82.4,256.9,144.4c75.5,62.9,134.9,136.4,176.7,218.7c43.9,86.5,66.2,178.6,66.2,273.8
			c0,87.1-18.8,172-55.9,252.3c-32.8,71.1-79,136.4-137.3,194.6l-117.5,475.4c-8.1,32.9-31,56.8-59.6,62.4
			C1641.5,2150.8,1637.4,2151.2,1633.4,2151.2z M1416.3,1718.1c16.3,0,31.8,8.6,41.4,23.6l164.6,256.5l103.4-418.3
			c0.8-15.1,7.1-29.2,17.5-39.1c54.6-51.8,97.2-110.3,126.5-173.7c29.8-64.5,44.9-132.4,44.9-201.8c0-75.9-17.9-149.8-53.3-219.5
			c-34.9-68.7-85.1-130.6-149.4-184.1c-65.3-54.4-141.5-97.1-226.6-127.1c-88.8-31.3-183.2-47.1-280.6-47.1
			c-97.4,0-191.8,15.9-280.6,47.1c-85.1,30-161.4,72.8-226.6,127.1C633.1,815.2,582.9,877.2,548,945.8
			c-35.4,69.7-53.3,143.5-53.3,219.5c0,75.9,17.9,149.7,53.3,219.5c34.9,68.7,85.1,130.6,149.4,184.1
			c65.3,54.4,141.5,97.1,226.6,127.1c88.8,31.3,183.2,47.1,280.6,47.1c67.8,0,135.4-8,200.8-23.8
			C1409,1718.5,1412.7,1718.1,1416.3,1718.1z M1725.6,1581.6C1725.6,1581.6,1725.6,1581.6,1725.6,1581.6
			C1725.6,1581.6,1725.6,1581.6,1725.6,1581.6z"/>
	</g>
	<path class="st2" d="M1586.6,1158.3v5.2c0,32.5-26.4,58.8-58.9,58.9h-246.2v247.3c0,32.5-26.3,58.9-58.8,58.9
		c-32.5,0-58.9-26.3-58.9-58.8l0,0v-247.4H913.6c-32.5,0-58.8-26.4-58.9-58.9v-5.2c0-32.5,26.4-58.8,58.9-58.9h250.2V856.1
		c0-32.5,26.3-58.9,58.8-58.9c32.5,0,58.9,26.3,58.9,58.8c0,0,0,0,0,0v243.4h246.2C1560.2,1099.4,1586.5,1125.7,1586.6,1158.3z"/>
</g>
</svg>
