<?xml version="1.0" encoding="utf-8"?>
<!-- Generator: Adobe Illustrator 27.5.0, SVG Export Plug-In . SVG Version: 6.00 Build 0)  -->
<svg version="1.1" id="Layer_1" xmlns="http://www.w3.org/2000/svg" xmlns:xlink="http://www.w3.org/1999/xlink" x="0px" y="0px"
	 viewBox="0 0 2409.2 2409.2" style="enable-background:new 0 0 2409.2 2409.2;" xml:space="preserve">
<style type="text/css">
	.st0{fill:#694C70;}
	.st1{fill:#FCF3E2;}
</style>
<circle class="st0" cx="1204.6" cy="1204.6" r="1179.5"/>
<g>
	<path class="st1" d="M1851.6,715.7l-158.1-158.1c-55.5-55.5-145.9-55.5-201.5,0L1361.5,688l359.6,359.6l130.5-130.5
		C1907.3,861.5,1907.3,771.3,1851.6,715.7L1851.6,715.7z"/>
	<path class="st1" d="M891.9,1174.1l-42.6,322.5c-4.1,30.9,17.6,59.2,48.5,63.3c4.9,0.7,9.9,0.7,14.8,0l322.5-42.6
		c12.3-1.6,23.7-7.3,32.5-16l373.8-373.8l-359.6-359.6l-373.8,373.8C899.2,1150.4,893.5,1161.8,891.9,1174.1z"/>
	<path class="st1" d="M1766.7,1352.7c-31.1,0-56.4,25.2-56.4,56.4v255.7c-0.1,63.9-51.8,115.6-115.7,115.7H744.3
		c-63.9-0.1-115.6-51.8-115.7-115.7V814.6c0.1-63.9,51.8-115.6,115.7-115.7H1000c31.1,0,56.4-25.2,56.5-56.3
		c0-31.1-25.2-56.4-56.3-56.5H744.3c-126,0-228.5,102.5-228.5,228.5v850.2c0,126,102.5,228.5,228.5,228.5h850.2
		c126,0,228.5-102.5,228.5-228.5v-255.7C1823.1,1378,1797.8,1352.7,1766.7,1352.7z"/>
</g>
</svg>
