<?xml version="1.0" encoding="utf-8"?>
<!-- Generator: Adobe Illustrator 27.5.0, SVG Export Plug-In . SVG Version: 6.00 Build 0)  -->
<svg version="1.1" id="Layer_1" xmlns="http://www.w3.org/2000/svg" xmlns:xlink="http://www.w3.org/1999/xlink" x="0px" y="0px"
	 viewBox="0 0 2409.2 2409.2" style="enable-background:new 0 0 2409.2 2409.2;" xml:space="preserve">
<style type="text/css">
	.st0{fill:#FAAD97;}
	.st1{clip-path:url(#SVGID_00000136411557473480215080000012154098322741485209_);}
	.st2{fill:#2D1F32;}
	.st3{fill:#EC1A24;}
</style>
<circle class="st0" cx="1204.6" cy="1204.6" r="1167.3"/>
<g>
	<defs>
		<circle id="SVGID_1_" cx="1204.6" cy="1204.6" r="1167.3"/>
	</defs>
	<clipPath id="SVGID_00000170968312702704120200000014874199874037613473_">
		<use xlink:href="#SVGID_1_"  style="overflow:visible;"/>
	</clipPath>
	<g style="clip-path:url(#SVGID_00000170968312702704120200000014874199874037613473_);">
		<g>
			<path class="st2" d="M1138.8,2445.5c-26.5-3.6-53.1-6.9-79.6-10.9c-183.9-27.3-347.4-100.6-488.5-221.7
				c-40.6-34.9-77-74.9-114.1-113.7c-5.7-5.9-8.4-19.2-6.2-27.4c31.1-115.8,86.2-218.9,164.8-309.6
				c95.2-109.8,212.6-185.6,349.8-231.3c2.4-0.8,4.5-2.2,9.1-4.5c-127.8-95.3-189.1-222-175.9-379.7c9.2-110.2,59.4-203.2,145-273.3
				c175.1-143.1,416.7-122.8,568.7,45.5c135.7,150.4,153.8,441.1-77.5,607.8c24.1,9.3,47.4,17.5,70,27.2
				c173.2,73.8,305.6,192.8,391.5,361c23.8,46.6,39.7,97.1,59.7,145.6c7.9,19.1,3,33.6-10.4,48.6
				c-77.3,86.1-165.4,158.5-266.7,214.6c-115.3,63.9-238.9,101.4-369.4,117.1c-13.2,1.6-26.5,3.2-39.7,4.8
				C1226,2445.5,1182.4,2445.5,1138.8,2445.5z"/>
		</g>
	</g>
</g>
<g>
	<g>
		<g>
			<path class="st2" d="M2139.9,689.1c-3.5-5-7.1-9.9-10.8-14.7c-5-6.4-10.8-12.8-18.7-14.6c-15.7-3.6-28.4,12.4-36,26.4
				c-79.2,144.6-148.9,280.7-262.6,403.9c-67.1,72.6-163.9,157.6-271.4,138.9c-43.1-7.5-84.8-30.5-109.3-66.3
				c-4.2-6.1-44.6-88.1-36.2-92.4c240.6-123.6,262.3-401.2,263.6-478.9c0.2-11.1-6.3-19.8-13.7-18.4
				c-245.7,45.9-320.2,402.4-320.2,402.4c-42.1-33.5-83.3-45.3-119.7-46.2v0c0,0,0,0,0,0c0,0,0,0,0,0v0
				c-36.4,0.9-77.7,12.7-119.7,46.2c0,0-74.5-356.5-320.2-402.4c-7.4-1.4-13.9,7.3-13.7,18.4c1.2,77.7,22.9,355.3,263.6,478.9
				c8.4,4.3-32.1,86.3-36.2,92.4c-24.5,35.8-66.3,58.8-109.3,66.3c-107.4,18.7-204.3-66.3-271.4-138.9
				C483.8,967,414.1,830.8,334.9,686.2c-7.7-14-20.3-30-36-26.4c-7.9,1.8-13.7,8.3-18.7,14.6c-3.8,4.8-7.4,9.7-10.8,14.7
				c-119.1,171.7-69.6,448.6-17.8,632.9c95.7,340.5,459.6,520.3,793.3,400.5c-11.7,4.2-18.7,81.6-20.2,91.9
				c-8.2,57.2-9.3,116.3,6.7,172.3c3.9,13.8,12.1,29.9,26.6,30c10,0.1,18-7.9,23.7-16c37.8-53.8,29.5-253.8,122.9-259.9
				c93.3,6.1,85,206.1,122.9,259.9c5.7,8.1,13.8,16.1,23.7,16c14.5-0.1,22.7-16.2,26.6-30c16-56,14.9-115.1,6.7-172.3
				c-1.5-10.3-8.5-87.7-20.2-91.9c333.7,119.8,697.5-60,793.3-400.5C2209.5,1137.7,2259,860.8,2139.9,689.1z"/>
		</g>
	</g>
</g>
<g>
	<g>
		<circle class="st3" cx="1030" cy="1129.1" r="75.5"/>
	</g>
</g>
<g>
	<g>
		<circle class="st3" cx="1379.1" cy="1129.1" r="75.5"/>
	</g>
</g>
</svg>
