<?xml version="1.0" encoding="utf-8"?>
<!-- Generator: Adobe Illustrator 27.5.0, SVG Export Plug-In . SVG Version: 6.00 Build 0)  -->
<svg version="1.1" id="Layer_1" xmlns="http://www.w3.org/2000/svg" xmlns:xlink="http://www.w3.org/1999/xlink" x="0px" y="0px"
	 viewBox="0 0 2409.2 2409.2" style="enable-background:new 0 0 2409.2 2409.2;" xml:space="preserve">
<style type="text/css">
	.st0{fill:#EC1A24;}
	.st1{fill:#FDF1DE;}
</style>
<circle class="st0" cx="1204.6" cy="1204.6" r="1167.7"/>
<g>
	<g>
		<path class="st1" d="M1671.5,799.4c-1.3-0.1-2.6-0.2-3.9-0.2H741.5c-24.2,0-43.8,19.6-43.8,43.8c0,1.3,0.1,2.6,0.2,3.9l82.7,914.7
			l0.5,5.7c6.3,71,65.8,125.4,137.1,125.4h572.9c71.3,0,130.7-54.4,137-125.4l0.5-5.7l82.7-914.7
			C1713.4,822.8,1695.6,801.5,1671.5,799.4C1671.5,799.4,1671.5,799.4,1671.5,799.4z M1036.7,1647.3c0,30.9-25.1,56-56,56
			c0,0,0,0,0,0l0,0c-30.9,0-56-25.1-56-56v-590.5c0-30.9,25-56,55.9-56c30.9,0,56,25,56,55.9c0,0.1,0,0.1,0,0.2V1647.3z
			 M1260.6,1647.3c0,30.9-25.1,56-56,56h0l0,0c-30.9,0-56-25.1-56-56v-590.5c0-30.9,25-56,55.9-56c30.9,0,56,25,56,55.9
			c0,0.1,0,0.1,0,0.2L1260.6,1647.3z M1484.4,1647.3c0,30.9-25.1,56-56,56c-30.9,0-56-25.1-56-56l0,0v-590.5c0-30.9,25-56,55.9-56
			c30.9,0,56,25,56,55.9c0,0.1,0,0.1,0,0.2V1647.3z"/>
		<path class="st1" d="M1741.8,628.2h-365c0-61.7-50-111.7-111.7-111.7h-121.1c-61.7,0-111.7,50-111.7,111.7h-365
			c-30.8,0-55.8,25-55.8,55.8s25,55.8,55.8,55.8h1074.5c30.8,0,55.8-25,55.8-55.8v0C1797.7,653.2,1772.7,628.2,1741.8,628.2z"/>
	</g>
</g>
</svg>
