<?xml version="1.0" encoding="utf-8"?>
<!-- Generator: Adobe Illustrator 27.5.0, SVG Export Plug-In . SVG Version: 6.00 Build 0)  -->
<svg version="1.1" id="Layer_1" xmlns="http://www.w3.org/2000/svg" xmlns:xlink="http://www.w3.org/1999/xlink" x="0px" y="0px"
	 viewBox="0 0 2216.9 1238.2" style="enable-background:new 0 0 2216.9 1238.2;" xml:space="preserve">
<style type="text/css">
	.st0{fill:#FDF1DE;}
	.st1{fill:#694C70;}
	.st2{fill:#FAAD97;}
	.st3{fill:#2D1F32;}
	.st4{fill:#EC1A24;}
</style>
<g>
	<g>
		<g>
			<path class="st0" d="M529.3,436.5c0,0,185.6-290.7,563.4-289.1C1470.4,149,1667,436.5,1667,436.5s-196.5,262.1-586.7,262.1
				C658.7,698.6,529.3,436.5,529.3,436.5z"/>
		</g>
		<path class="st1" d="M1080.2,721.9c-98.7,0-190.1-14.2-271.5-42.2c-65.6-22.6-124.9-54.1-176.3-93.7
			C544.1,518,509.8,449.7,508.4,446.8c-3.6-7.3-3.1-16,1.3-22.8c2-3.1,49.7-76.9,145.4-151.1c88.3-68.4,236.1-149.7,437.7-148.8
			c201.5,0.9,352,81.9,442.7,149.8c98.3,73.6,148.7,146.4,150.8,149.5c5.6,8.2,5.4,19.1-0.6,27.1c-2.1,2.8-52.7,69.5-152.7,136.5
			C1440.9,648.5,1287.6,721.9,1080.2,721.9z M556.8,437.7c13.1,21,46.1,67.3,106.2,113.1c47.4,36.1,102.1,64.9,162.7,85.5
			c76.1,25.9,161.7,39.1,254.5,39.1c194.8,0,338.7-68.5,425.1-126c68.4-45.5,112.7-91.5,131.9-113.5c-18.9-23.9-63.1-75-131.2-125.7
			c-54.1-40.3-112.6-72.4-173.7-95.5c-76.2-28.8-156.9-43.6-239.9-43.9c-82.9-0.4-162.9,14-237.9,42.5
			c-60.1,22.9-117.2,55-169.7,95.4C616.4,361.4,573.5,415,556.8,437.7z M529.3,436.5L529.3,436.5L529.3,436.5z"/>
	</g>
	<g>
		<g>
			<circle class="st2" cx="1088.4" cy="423" r="294.2"/>
		</g>
	</g>
	<g>
		<g>
			<g>
				<path class="st3" d="M1318.8,302.6c-0.9-1.2-1.7-2.5-2.7-3.7c-1.2-1.6-2.7-3.2-4.6-3.6c-3.9-0.9-7,3.1-8.9,6.6
					c-19.5,36-36.7,69.9-64.7,100.5c-16.5,18.1-40.4,39.2-66.9,34.6c-10.6-1.9-20.9-7.6-26.9-16.5c-1-1.5-11-21.9-8.9-23
					c59.3-30.8,64.6-99.8,64.9-119.2c0-2.8-1.6-4.9-3.4-4.6c-60.5,11.4-78.9,100.1-78.9,100.1c-10.4-8.3-20.5-11.3-29.5-11.5v0
					c0,0,0,0,0,0s0,0,0,0v0c-9,0.2-19.1,3.2-29.5,11.5c0,0-18.4-88.7-78.9-100.1c-1.8-0.3-3.4,1.8-3.4,4.6
					c0.3,19.3,5.7,88.4,64.9,119.2c2.1,1.1-7.9,21.5-8.9,23c-6,8.9-16.3,14.6-26.9,16.5c-26.5,4.7-50.3-16.5-66.9-34.6
					c-28-30.7-45.2-64.5-64.7-100.5c-1.9-3.5-5-7.5-8.9-6.6c-1.9,0.4-3.4,2.1-4.6,3.6c-0.9,1.2-1.8,2.4-2.7,3.7
					c-29.3,42.7-17.1,111.6-4.4,157.5c23.6,84.7,113.2,129.5,195.5,99.7c-2.9,1-4.6,20.3-5,22.9c-2,14.2-2.3,28.9,1.7,42.9
					c1,3.4,3,7.4,6.6,7.5c2.5,0,4.4-2,5.8-4c9.3-13.4,7.3-63.2,30.3-64.7c23,1.5,21,51.3,30.3,64.7c1.4,2,3.4,4,5.8,4
					c3.6,0,5.6-4,6.6-7.5c3.9-13.9,3.7-28.6,1.7-42.9c-0.4-2.6-2.1-21.8-5-22.9c82.2,29.8,171.9-14.9,195.5-99.7
					C1336,414.2,1348.2,345.3,1318.8,302.6z"/>
			</g>
		</g>
	</g>
	<g>
		<g>
			<circle class="st4" cx="1059.3" cy="414.3" r="14.6"/>
		</g>
	</g>
	<g>
		<g>
			<circle class="st4" cx="1117.4" cy="414.3" r="14.6"/>
		</g>
	</g>
	<g>
		<path class="st1" d="M1080.2,721.9c-98.7,0-190.1-14.2-271.5-42.2c-65.6-22.6-124.9-54.1-176.3-93.7
			C544.1,518,509.8,449.7,508.4,446.8c-3.6-7.3-3.1-16,1.3-22.8c2-3.1,49.7-76.9,145.4-151.1c88.3-68.4,236.1-149.7,437.7-148.8
			c201.5,0.9,352,81.9,442.7,149.8c98.3,73.6,148.7,146.4,150.8,149.5c5.6,8.2,5.4,19.1-0.6,27.1c-2.1,2.8-52.7,69.5-152.7,136.5
			C1440.9,648.5,1287.6,721.9,1080.2,721.9z M556.8,437.7c13.1,21,46.1,67.3,106.2,113.1c47.4,36.1,102.1,64.9,162.7,85.5
			c76.1,25.9,161.7,39.1,254.5,39.1c194.8,0,338.7-68.5,425.1-126c68.4-45.5,112.7-91.5,131.9-113.5c-18.9-23.9-63.1-75-131.2-125.7
			c-54.1-40.3-112.6-72.4-173.7-95.5c-76.2-28.8-156.9-43.6-239.9-43.9c-82.9-0.4-162.9,14-237.9,42.5
			c-60.1,22.9-117.2,55-169.7,95.4C616.4,361.4,573.5,415,556.8,437.7z M529.3,436.5L529.3,436.5L529.3,436.5z"/>
	</g>
</g>
<g>
	<path class="st0" d="M249.2,839.7c2.5,3.5,3.7,8.8,3.7,16c0,7.2-0.2,13-0.7,17.4c-0.5,4.5-1.2,8.8-2.1,12.9
		c-2,9.3-4.9,16.4-8.5,21.1c-3.1-16.4-7.2-28.1-12.2-35.1c-5.3-7.1-12.1-10.7-20.5-10.7c-8.4,0-15,1.6-19.8,4.8
		c-4.8,3.2-8.4,7.5-10.9,12.7c-4.2,8.7-6.4,21.6-6.4,38.6c0,17,1.9,32.6,5.8,46.7c3.9,14.1,9.3,26.3,16.5,36.4
		c15,21.6,34.6,32.4,58.6,32.4c-0.3,3.8-2.3,7.1-6,9.9c-1.1,0.8-2.3,1.4-3.6,1.5c-30.8,0-55.9-11.3-75.3-34
		c-20.6-24.1-30.9-56.9-30.9-98.4c0-21.7,6.4-38,19.1-49c11.3-9.7,26.7-14.5,46.3-14.5l21.2,0.3c10,0,17-1.4,21.1-4.3
		C246.3,843.3,247.9,841.7,249.2,839.7z"/>
	<path class="st0" d="M349.2,1043.2c3.9-13.4,5.9-36.4,5.9-69.1c0-13.7-0.7-22.7-2.2-27.3c-1.4-4.5-3.2-7.8-5.4-9.9
		c-2.2-2.1-5-3.1-8.6-3.1c-3.6,0-6.9,0.7-9.8,2c-2.9,1.4-5.5,3.1-7.8,5.3c-4.3,4.1-7.8,9.5-10.6,16.3v24.3c0,23.8,0.5,38.6,1.4,44.3
		c1.1,7.5,2.2,13.2,3.4,17.2H278c2-7.1,3.4-16.6,4.1-28.4c1.5-29.5,2.3-51.2,2.3-65.2c0-13.9,0-23.5-0.1-28.6
		c-0.1-5.1-0.2-10.2-0.4-15.3c-0.4-18.5-1.3-30.1-2.5-34.8c-1.2-4.7-2.4-8.1-3.4-10.3c-1.1-2.2-2.2-4.1-3.5-5.9l-4.3-6h46.4
		c-2.4,8.6-3.8,16.5-4.1,23.9s-0.7,13.4-0.8,18c-0.2,4.6-0.3,9.5-0.5,14.6c-0.3,11.9-0.4,22.3-0.4,31.4
		c6.7-11.3,15.6-18.7,26.6-22.4c3.9-1.4,8.3-2,13.1-2s9.2,1,13.2,3.1c3.9,2.1,7.2,5,9.9,8.8c5.4,7.7,8.1,18.3,8.1,31.7v13.6
		c0,25.9,0.4,42.2,1.1,48.8c0.7,6.6,1.2,10.9,1.5,13c0.6,3.7,1.5,7.7,2.7,12H349.2z"/>
	<path class="st0" d="M513.6,975.3l-0.4,24.4c0,15.2,1.4,25.5,4.2,31c1.7,3.3,3.7,5.9,6,7.6l6,4.8h-36.9l-3.9-14.8
		c-9.6,11.5-23.2,17.3-41,17.3c-10.1,0-18.2-3.4-24.4-10.2c-5.4-6.1-8.1-13.3-8.1-21.6c0-8.3,2-15.6,5.9-21.8
		c3.9-6.2,9.1-11.3,15.6-15.4c12.7-7.9,28.7-12,48-12.3v-1.4c0-20.6-3.2-32.7-9.5-36.2c-2.3-1.3-5.2-1.9-8.8-1.9
		c-3.6,0-7.2,1.2-10.7,3.6c-3.6,2.4-6.8,5.4-9.7,9.2c-5.8,7.5-9.9,16.5-12.3,26.7c-7.5-4.5-11.3-13.1-11.3-25.8c0-5.2,0.7-11,2-17.4
		c3.2,0,6.3-0.5,9.2-1.4l9.8-3.1c9.6-3,19-4.5,28.1-4.5c9.2,0,16.5,1.4,21.9,4.1c5.5,2.7,9.7,6.7,12.8,12.1
		C511.1,937.4,513.6,953.1,513.6,975.3z M446.2,1028.7c2.4,2.9,5.4,4.3,9.1,4.3c3.6,0,7.2-1,10.6-2.9c3.4-1.9,6.4-4.5,9.2-7.8
		c6.4-7.5,9.5-16.4,9.5-26.6V977c-11.9,1.1-21.7,5-29.4,11.8c-8.4,7.3-12.6,16.5-12.6,27.7C442.5,1021.8,443.8,1025.8,446.2,1028.7z
		"/>
	<path class="st0" d="M549.6,1043.2c3.9-13.4,5.9-36.4,5.9-69.1c0-23.2-2-39.1-6.1-47.6c-1-2.1-2.2-4.1-3.4-6l-4.2-5.9h44.1
		c-1.3,4.2-2.1,8.2-2.5,12l-1,9.2c10.3-15.8,23.3-23.7,39.2-23.7c10.3,0,18.3,4,24,12c5.6,7.8,8.4,18.4,8.4,31.7v13.6
		c0,23.3,0.2,37.6,0.6,42.7c0.4,5.2,0.8,9.1,1,11.8c0.3,2.7,0.6,5.1,0.9,7.2c0.6,4,1.5,8,2.7,12h-37.3c3.9-13.4,5.9-36.4,5.9-69.1
		c0-13.1-0.8-22-2.5-26.8c-1.7-4.8-3.6-8.3-5.9-10.4c-2.3-2.1-5.3-3.1-9-3.1c-6.9,0-13.1,2.7-18.7,8.1c-4.8,4.7-8.5,10.6-11.1,17.8
		c-0.2,2.3-0.3,4.7-0.3,7.1v7.2c0,32.6,1.9,55.7,5.9,69.1H549.6z"/>
	<path class="st0" d="M756.5,1040.2c-8.2,3.7-16.3,5.6-24.3,5.6c-8,0-14.6-1-19.8-3.1c-5.3-2-9.8-5-13.5-8.9
		c-7.8-8.1-11.7-19.4-11.7-33.7c0-27.6,7.9-49.2,23.8-64.6c14.2-13.8,31.2-20.7,51.1-20.7h29c-2.4,8.2-3.7,16.1-4.1,23.7
		c-0.3,7.5-0.6,13.7-0.7,18.5c-0.1,4.8-0.2,9.6-0.3,14.6c-0.2,9.8-0.3,19.9-0.3,30.1c0,10.3-0.8,20.2-2.4,29.8
		c-1.6,9.6-3.8,18-6.4,25.2c-2.7,7.2-5.7,13.4-9.2,18.4c-3.4,5.1-7,9.4-10.7,12.8c-6.1,5.7-13.2,9.8-21.2,12.5
		c-1.7-0.7-3.3-1.9-4.9-3.7c-1.6-1.8-2.5-3.5-2.9-5.2c9.7-3.9,17.3-13.6,23-29.1C753.2,1056.4,755,1049,756.5,1040.2z M759.3,1000.7
		l0.4-38.2c0-15.3-0.6-27-1.7-34.9c-12,2.4-21.5,9.5-28.5,21.4c-7,12.1-10.6,27.4-10.6,45.9c0,11.4,0.9,19.5,2.6,24.3
		c1.7,4.8,3.8,8.2,6.2,10.4c2.4,2.2,5.3,3.3,8.8,3.3s6.5-0.7,9.1-2c2.6-1.4,5-3.4,7-6.1C757.1,1019.1,759.3,1011,759.3,1000.7z"/>
	<path class="st0" d="M905,1000c3.1,2,4.6,5.6,4.6,10.6c0,5-0.7,9.5-2,13.3c-1.4,3.8-3.7,7.4-7.1,10.7c-7.6,7.5-19.2,11.2-34.9,11.2
		c-18.1,0-32-6.7-41.5-20.1c-8.4-12-12.6-28.1-12.6-48.5c0-20.5,5.7-36.6,17-48.3c10.8-11.1,25.4-16.7,43.8-16.7
		c12.8,0,22.8,3.7,30,11.2c5.7,5.9,8.5,12.8,8.5,20.5s-1.5,14.8-4.5,21c-3,6.2-7.4,11.6-13.3,16.1c-12,9.3-28.9,14.2-50.5,14.8
		c1.8,17,7.1,28.5,16,34.2c3.2,2,7.5,3.1,12.8,3.1c5.3,0,11-2.8,17-8.4C894.5,1019.1,900,1010.8,905,1000z M841.8,983.7
		c26.8-1.8,40.2-14.8,40.2-38.9c0-9.1-2.7-15.2-8.1-18.3c-1.9-1-4.3-1.5-7.4-1.5c-3.1,0-6.1,0.9-9.2,2.8c-3.1,1.9-5.8,4.9-8.1,9.2
		c-4.9,9.2-7.4,23.5-7.4,42.9V983.7z"/>
	<path class="st0" d="M1071,922.4c-6.4,0-9.7,5.8-9.7,17.4v16c0,29.5,0.3,47.7,1,54.6c0.6,6.9,1.3,11.7,1.9,14.4
		c0.6,2.7,1.5,5.1,2.6,7.2c1.8,3.5,5.3,7.2,10.7,11.1h-54.1c3.1-6.3,5-11.6,5.7-16c0.7-4.4,1.2-9.1,1.5-14c0.7-10,1-23.4,1-40.3
		c0-20.4-0.3-39.1-1-56l-1.4-35c-0.3-8.8-1.1-15-2.3-18.4c-1.9-5.5-4.9-10.5-9.2-14.9h71.1c19.2,0,33,2,41.6,6.1
		c9.1,4.2,13.6,11.5,13.6,21.8c0,12.6-5.4,22.9-16.2,31.2C1115.3,917.5,1096.3,922.4,1071,922.4z M1102.7,899.1
		c2.7-2.7,4.6-5.5,5.9-8.5c1.3-3,1.9-5.8,1.9-8.4c0-2.6-0.4-5.2-1.1-7.7c-0.7-2.5-2.1-4.8-4.3-6.7c-4.8-4.2-12.9-6.4-24.4-6.4
		c-7,0-11.5,0.8-13.6,2.5c-3.9,3.2-5.9,9.5-5.9,19c0,10.6,0.8,17.2,2.5,19.7c1.7,2.5,3.6,4.1,5.9,4.8c2.2,0.7,5.6,1.1,10.1,1.1
		c4.5,0,8.8-0.9,12.8-2.7C1096.7,904,1100.1,901.7,1102.7,899.1z"/>
	<path class="st0" d="M1253.4,975.3l-0.4,24.4c0,15.2,1.4,25.5,4.2,31c1.7,3.3,3.7,5.9,6,7.6l6,4.8h-36.9l-3.9-14.8
		c-9.6,11.5-23.2,17.3-41,17.3c-10.1,0-18.2-3.4-24.4-10.2c-5.4-6.1-8.1-13.3-8.1-21.6c0-8.3,2-15.6,5.9-21.8
		c3.9-6.2,9.1-11.3,15.6-15.4c12.7-7.9,28.7-12,48-12.3v-1.4c0-20.6-3.2-32.7-9.5-36.2c-2.3-1.3-5.2-1.9-8.8-1.9
		c-3.6,0-7.2,1.2-10.7,3.6c-3.6,2.4-6.8,5.4-9.7,9.2c-5.8,7.5-9.9,16.5-12.3,26.7c-7.5-4.5-11.3-13.1-11.3-25.8c0-5.2,0.7-11,2-17.4
		c3.2,0,6.3-0.5,9.2-1.4l9.8-3.1c9.6-3,19-4.5,28.1-4.5s16.5,1.4,21.9,4.1c5.5,2.7,9.7,6.7,12.8,12.1
		C1250.8,937.4,1253.4,953.1,1253.4,975.3z M1185.9,1028.7c2.4,2.9,5.4,4.3,9.1,4.3c3.6,0,7.2-1,10.6-2.9c3.4-1.9,6.4-4.5,9.2-7.8
		c6.4-7.5,9.5-16.4,9.5-26.6V977c-11.9,1.1-21.7,5-29.4,11.8c-8.4,7.3-12.6,16.5-12.6,27.7
		C1182.3,1021.8,1183.5,1025.8,1185.9,1028.7z"/>
	<path class="st0" d="M1368,907.3c2.3,5.1,3.4,10.2,3.4,15.4c0,5.2-0.2,9.5-0.7,12.8c-0.5,3.4-1.2,6.7-2.1,9.8
		c-2.1,7.1-5.1,12.6-9,16.4c-2.6-13.1-5.5-21.7-8.6-25.6c-3.1-3.9-6.2-6.5-9.3-7.9c-3.1-1.4-6.4-2-9.9-2c-3.5,0-6.3,0.3-8.5,1
		c-2.2,0.7-4.1,1.7-5.7,2.9c-3.6,2.8-5.5,6-5.5,9.5s0.9,6.6,2.7,9.2c1.8,2.6,4.1,5,7.1,7.2c2.9,2.2,6.3,4.4,10,6.5l11.4,6.5
		c9.8,5.5,16.6,10.1,20.2,13.7c7.2,7.2,10.8,14.8,10.8,22.8c0,10.4-3.6,19.2-10.7,26.3c-9,9.2-22.5,13.7-40.4,13.7
		c-16.4,0-28.7-3.8-36.9-11.4c-2.4-2.2-4.1-4.4-5.1-6.6c0.7-6.4,3.5-12.3,8.5-17.9c4.8-5.4,9.5-8.6,14.1-9.4c-0.3,1.1-0.5,2.8-0.5,5
		c0,2.2,0.6,4.9,1.9,8.2c1.3,3.3,3.1,6.3,5.5,9.1c5.3,6.4,11.4,9.7,18.1,9.7c6.7,0,11.6-1.5,14.8-4.6c3.1-3.1,4.7-6.5,4.7-10.4
		c0-3.9-0.9-7.2-2.7-9.8c-1.8-2.6-4.1-5.1-7.1-7.4c-2.9-2.3-6.3-4.5-10-6.6l-11.4-6.5c-9.8-5.8-16.5-10.7-20.1-14.8
		c-7.3-8.1-10.9-17-10.9-26.6c0-10.1,4.2-18.3,12.7-24.5c8.1-5.9,18.1-8.9,30.1-8.9l22.4,1.5c5.4,0,9.2-0.7,11.3-2
		C1364.8,910.5,1366.6,909,1368,907.3z"/>
	<path class="st0" d="M1482.7,907.3c2.3,5.1,3.4,10.2,3.4,15.4c0,5.2-0.2,9.5-0.7,12.8c-0.5,3.4-1.2,6.7-2.1,9.8
		c-2.1,7.1-5.1,12.6-9,16.4c-2.6-13.1-5.5-21.7-8.6-25.6c-3.1-3.9-6.2-6.5-9.3-7.9c-3.1-1.4-6.4-2-9.9-2c-3.5,0-6.3,0.3-8.5,1
		c-2.2,0.7-4.1,1.7-5.7,2.9c-3.6,2.8-5.5,6-5.5,9.5s0.9,6.6,2.7,9.2c1.8,2.6,4.1,5,7.1,7.2c2.9,2.2,6.3,4.4,10,6.5l11.4,6.5
		c9.8,5.5,16.6,10.1,20.2,13.7c7.2,7.2,10.8,14.8,10.8,22.8c0,10.4-3.6,19.2-10.7,26.3c-9,9.2-22.5,13.7-40.4,13.7
		c-16.4,0-28.7-3.8-36.9-11.4c-2.4-2.2-4.1-4.4-5.1-6.6c0.7-6.4,3.5-12.3,8.5-17.9c4.8-5.4,9.5-8.6,14.1-9.4c-0.3,1.1-0.5,2.8-0.5,5
		c0,2.2,0.6,4.9,1.9,8.2c1.3,3.3,3.1,6.3,5.5,9.1c5.3,6.4,11.4,9.7,18.1,9.7c6.7,0,11.6-1.5,14.8-4.6c3.1-3.1,4.7-6.5,4.7-10.4
		c0-3.9-0.9-7.2-2.7-9.8c-1.8-2.6-4.1-5.1-7.1-7.4c-2.9-2.3-6.3-4.5-10-6.6l-11.4-6.5c-9.8-5.8-16.5-10.7-20.1-14.8
		c-7.3-8.1-10.9-17-10.9-26.6c0-10.1,4.2-18.3,12.7-24.5c8.1-5.9,18.1-8.9,30.1-8.9l22.4,1.5c5.4,0,9.2-0.7,11.3-2
		C1479.5,910.5,1481.3,909,1482.7,907.3z"/>
	<path class="st0" d="M1621.6,914.8c-3.6,5.9-5.3,14.6-5.3,26.3c0,2.8,0.8,7.2,2.5,13.2c4.1,13.7,7,23.2,8.8,28.6l9.5,27.7
		c4-11.8,6.9-20.6,8.6-26.5c8.4-28,12.6-43.7,12.6-47.2c0-3.5-0.2-6.1-0.5-8c-0.3-1.8-0.8-3.5-1.4-5.2c-1-2.3-3-5.3-6-9.2h42.6
		c-5.3,5.7-8.9,11-10.9,16.1c-2,5-3.6,8.9-4.6,11.5l-15.8,44.3c-3.9,11.9-6.7,20.7-8.4,26.5c-1,4.6-1.5,9.5-1.5,14.6
		c0,5.2,1.1,10.4,3.3,15.6l-47.1-0.1c2-3.2,3.2-6.3,3.6-9.1c0.4-2.8,0.6-5.6,0.6-8.3c0-2.7-0.4-6.1-1.3-10c-0.8-4-2-8.6-3.4-13.7
		c-2.9-10.8-6.5-22.3-10.9-34.5c-8.2,21-13.2,35-14.9,41.8c-1.7,6.8-2.5,12.8-2.5,18.1s1.1,10.5,3.4,16l-47.1-0.1
		c2-3.2,3.2-6.3,3.6-9.1c0.4-2.8,0.6-5.8,0.6-8.8c0-3-0.6-7.4-1.8-13c-1.2-5.7-2.9-12.1-4.9-19.3c-2-7.2-4.4-14.8-7-22.8
		c-2.6-8-5.4-15.7-8.3-23c-6.5-16.5-12-27.3-16.5-32.4h46.9c-1.5,3.7-2.3,7.8-2.3,12.3c0,4.5,0.3,8.4,1,11.8
		c0.6,3.4,1.5,7.2,2.5,11.6c1.1,4.4,2.3,9.2,3.8,14.2l12.7,44.6c12.1-30.7,18.9-49,20.2-54.9c1.4-5.9,2-9.7,2-11.4
		c0-10.9-2.8-20.4-8.4-28.4H1621.6z"/>
	<path class="st0" d="M1762.3,912.2c35.7,0,53.5,19.3,53.5,57.9c0,23.4-4.9,41.9-14.8,55.6c-9.6,13.4-22.5,20.1-38.8,20.1
		c-16.3,0-29.2-6.7-38.8-20.1c-9.8-13.7-14.8-32.2-14.8-55.6C1708.8,931.5,1726.6,912.2,1762.3,912.2z M1745.8,936.4
		c-3.4,7.6-5,20.5-5,38.5c0,38.8,7.2,58.1,21.5,58.1c7.6,0,13.1-5.2,16.5-15.5c3.3-10.3,5-24.5,5-42.6s-1.7-30.9-5-38.5
		c-3.4-7.6-8.8-11.4-16.5-11.4S1749.2,928.8,1745.8,936.4z"/>
	<path class="st0" d="M1849.6,1043.2c3.9-13.4,5.9-36.4,5.9-69.1c0-23.2-1.9-39.1-5.6-47.6c-1.5-3.5-4.2-7.4-8.1-11.8h45.2
		c-1.5,5.3-2.8,12.7-3.7,22c8-10,19.1-17.1,33.3-21.2c6.1-1.8,10.6-4.6,13.4-8.4c2.8,6.7,4.2,12.5,4.2,17.3c0,4.8-0.3,9.3-0.8,13.4
		c-0.5,4.1-1.3,8.1-2.3,12c-2.2,8.4-5.1,14.9-8.8,19.6c-3.1-16.5-8-26.2-14.6-29c-7.6-3.3-15.1,1.2-22.4,13.5
		c-1.5,2.5-2.8,5.3-3.8,8.1c-0.1,2-0.1,3.9-0.1,6s0,4.1,0,6.1c0,32.6,2,55.7,5.9,69.1H1849.6z"/>
	<path class="st0" d="M2024.5,1033.2c-9.2,8.4-21,12.6-35.2,12.6c-13.1,0-23.4-3.8-30.9-11.3c-7.8-7.8-11.7-18.8-11.7-33
		c0-14.2,2.1-26.6,6.2-37.3c4.2-10.6,9.6-19.6,16.4-26.8c13.4-14.2,29.8-21.8,49.4-22.5c-0.7-26.1-1.5-41.1-2.6-45
		c-1.1-3.9-2.1-6.9-3.2-9.2c-1.1-2.2-2.3-4.3-3.6-6.2l-4.3-6h46.4c-2.4,8.6-3.8,16.9-4.1,24.9c-0.4,8.1-0.7,15.1-0.8,21.2
		c-0.2,6.1-0.3,12.5-0.4,19.2c-0.3,11.2-0.4,22.3-0.4,33.4c0,11.1,0,19.4,0.1,25.1c0,5.7,0.1,11.1,0.3,16.2
		c0.4,19.1,1.1,30.4,2.2,34c1,3.6,2.1,6.5,3.1,8.6c1.1,2.2,2.3,4.2,3.6,6l4.3,5.9h-32.9L2024.5,1033.2z M2018.8,996.5
		c0.4-13.1,0.6-25.3,0.6-36.7c0-11.4-0.1-22.3-0.4-32.6c-12.3,1.9-22.1,9.1-29.5,21.8c-7.4,12.5-11.1,28.4-11.1,47.4
		c0,11.3,0.9,19.2,2.6,23.7c1.7,4.5,3.8,7.8,6.2,9.9c2.4,2.1,5.3,3.1,8.8,3.1s6.4-0.7,9-2.1c2.6-1.4,4.9-3.5,6.8-6.2
		C2016.1,1019,2018.4,1009.6,2018.8,996.5z"/>
</g>
</svg>
