<?xml version="1.0" encoding="utf-8"?>
<!-- Generator: Adobe Illustrator 27.5.0, SVG Export Plug-In . SVG Version: 6.00 Build 0)  -->
<svg version="1.1" id="Layer_1" xmlns="http://www.w3.org/2000/svg" xmlns:xlink="http://www.w3.org/1999/xlink" x="0px" y="0px"
	 viewBox="0 0 2216.9 1238.2" style="enable-background:new 0 0 2216.9 1238.2;" xml:space="preserve">
<style type="text/css">
	.st0{fill:#FDF1DE;}
	.st1{fill:#694C70;}
	.st2{fill:#FAAD97;}
	.st3{fill:#2D1F32;}
	.st4{fill:#EC1A24;}
</style>
<g>
	<g>
		<g>
			<path class="st0" d="M544.2,389.9c0,0,185.6-290.7,563.4-289.1s574.3,289.1,574.3,289.1s-196.5,262.1-586.7,262.1
				C673.6,652.1,544.2,389.9,544.2,389.9z"/>
		</g>
		<path class="st1" d="M1095.1,675.4c-98.7,0-190.1-14.2-271.5-42.2c-65.6-22.6-124.9-54.1-176.3-93.7
			C559,471.4,524.7,403.1,523.3,400.2c-3.6-7.3-3.1-16,1.3-22.8c2-3.1,49.7-76.9,145.4-151.1C758.2,158,906,76.6,1107.6,77.5
			c201.5,0.9,352,81.9,442.7,149.8c98.3,73.6,148.7,146.4,150.8,149.5c5.6,8.2,5.4,19.1-0.6,27.1c-2.1,2.8-52.7,69.5-152.7,136.5
			C1455.8,601.9,1302.5,675.4,1095.1,675.4z M571.8,391.1c13.1,21,46.1,67.3,106.2,113.1c47.4,36.1,102.1,64.9,162.7,85.5
			c76.1,25.9,161.7,39.1,254.5,39.1c194.8,0,338.7-68.5,425.1-126c68.4-45.5,112.7-91.5,131.9-113.5c-18.9-23.9-63.1-75-131.2-125.7
			c-54.1-40.3-112.6-72.4-173.7-95.5c-76.2-28.8-156.9-43.6-239.9-43.9c-82.9-0.4-162.9,14-237.9,42.5
			c-60.1,22.9-117.2,55-169.7,95.4C631.4,314.8,588.5,368.4,571.8,391.1z M544.2,389.9L544.2,389.9L544.2,389.9z"/>
	</g>
	<g>
		<g>
			<circle class="st2" cx="1103.3" cy="376.4" r="294.2"/>
		</g>
	</g>
	<g>
		<g>
			<g>
				<path class="st3" d="M1333.7,256c-0.9-1.2-1.7-2.5-2.7-3.7c-1.2-1.6-2.7-3.2-4.6-3.6c-3.9-0.9-7,3.1-8.9,6.6
					c-19.5,36-36.7,69.9-64.7,100.5c-16.5,18.1-40.4,39.2-66.9,34.6c-10.6-1.9-20.9-7.6-26.9-16.5c-1-1.5-11-21.9-8.9-23
					c59.3-30.8,64.6-99.8,64.9-119.2c0-2.8-1.6-4.9-3.4-4.6c-60.5,11.4-78.9,100.1-78.9,100.1c-10.4-8.3-20.5-11.3-29.5-11.5v0
					c0,0,0,0,0,0c0,0,0,0,0,0v0c-9,0.2-19.1,3.2-29.5,11.5c0,0-18.4-88.7-78.9-100.1c-1.8-0.3-3.4,1.8-3.4,4.6
					c0.3,19.3,5.7,88.4,64.9,119.2c2.1,1.1-7.9,21.5-8.9,23c-6,8.9-16.3,14.6-26.9,16.5c-26.5,4.7-50.3-16.5-66.9-34.6
					c-28-30.7-45.2-64.5-64.7-100.5c-1.9-3.5-5-7.5-8.9-6.6c-1.9,0.4-3.4,2.1-4.6,3.6c-0.9,1.2-1.8,2.4-2.7,3.7
					c-29.3,42.7-17.1,111.6-4.4,157.5c23.6,84.7,113.2,129.5,195.5,99.7c-2.9,1-4.6,20.3-5,22.9c-2,14.2-2.3,28.9,1.7,42.9
					c1,3.4,3,7.4,6.6,7.5c2.5,0,4.4-2,5.8-4c9.3-13.4,7.3-63.2,30.3-64.7c23,1.5,21,51.3,30.3,64.7c1.4,2,3.4,4,5.8,4
					c3.6,0,5.6-4,6.6-7.5c3.9-13.9,3.7-28.6,1.7-42.9c-0.4-2.6-2.1-21.8-5-22.9c82.2,29.8,171.9-14.9,195.5-99.7
					C1350.9,367.6,1363.1,298.7,1333.7,256z"/>
			</g>
		</g>
	</g>
	<g>
		<g>
			<circle class="st4" cx="1074.2" cy="367.7" r="14.6"/>
		</g>
	</g>
	<g>
		<g>
			<circle class="st4" cx="1132.4" cy="367.7" r="14.6"/>
		</g>
	</g>
	<g>
		<path class="st1" d="M1095.1,675.4c-98.7,0-190.1-14.2-271.5-42.2c-65.6-22.6-124.9-54.1-176.3-93.7
			C559,471.4,524.7,403.1,523.3,400.2c-3.6-7.3-3.1-16,1.3-22.8c2-3.1,49.7-76.9,145.4-151.1C758.2,158,906,76.6,1107.6,77.5
			c201.5,0.9,352,81.9,442.7,149.8c98.3,73.6,148.7,146.4,150.8,149.5c5.6,8.2,5.4,19.1-0.6,27.1c-2.1,2.8-52.7,69.5-152.7,136.5
			C1455.8,601.9,1302.5,675.4,1095.1,675.4z M571.8,391.1c13.1,21,46.1,67.3,106.2,113.1c47.4,36.1,102.1,64.9,162.7,85.5
			c76.1,25.9,161.7,39.1,254.5,39.1c194.8,0,338.7-68.5,425.1-126c68.4-45.5,112.7-91.5,131.9-113.5c-18.9-23.9-63.1-75-131.2-125.7
			c-54.1-40.3-112.6-72.4-173.7-95.5c-76.2-28.8-156.9-43.6-239.9-43.9c-82.9-0.4-162.9,14-237.9,42.5
			c-60.1,22.9-117.2,55-169.7,95.4C631.4,314.8,588.5,368.4,571.8,391.1z M544.2,389.9L544.2,389.9L544.2,389.9z"/>
	</g>
</g>
<g>
	<g>
		<path class="st0" d="M638.4,1012.8c3.5,5,5.2,11.1,5.2,18.1c0,7.1-0.5,13.2-1.4,18.3c-1,5.1-2.3,10-4,14.6
			c-3.9,10.2-8.7,16.9-14.6,20.2h-155c10.1-6.3,16.8-11.8,19.9-16.4c5.9-8.7,8.9-20,8.9-33.9c-0.1-34.2-0.2-65.1-0.2-92.7v-101
			c0-18.6-3.1-32.3-9.3-41.1c-2.2-3.2-4.9-6.5-8.1-9.8H559c-7.6,10.9-11.9,22.2-12.9,33.7c-0.3,3.9-0.4,8.1-0.4,12.7v176.5
			c0,24,1.3,38.4,3.9,43.1c2.6,4.7,5.7,7.5,9.3,8.3c3.6,0.8,9.1,1.3,16.4,1.3s14.3-1.3,20.8-3.9c6.6-2.6,12.4-6.2,17.5-10.8
			C622.3,1042.3,630.6,1029.8,638.4,1012.8z"/>
		<path class="st0" d="M744.8,885.6c54.1,0,81.1,29.2,81.1,87.7c0,35.5-7.5,63.5-22.4,84.2c-14.5,20.3-34.1,30.5-58.8,30.5
			s-44.3-10.1-58.8-30.5c-14.9-20.7-22.4-48.8-22.4-84.2C663.7,914.9,690.7,885.6,744.8,885.6z M719.9,922.3
			c-5.1,11.6-7.6,31-7.6,58.4c0,58.7,10.9,88.1,32.6,88.1c11.6,0,19.9-7.8,25-23.5c5.1-15.7,7.6-37.2,7.6-64.6s-2.5-46.8-7.6-58.4
			c-5.1-11.6-13.4-17.3-25-17.3S724.9,910.7,719.9,922.3z"/>
		<path class="st0" d="M1015.8,981.2l-0.6,37c0,23,2.1,38.7,6.4,47c2.6,5,5.6,8.9,9.1,11.6l9.1,7.3h-55.9l-6-22.4
			c-14.5,17.5-35.2,26.2-62.1,26.2c-15.3,0-27.6-5.1-37-15.4c-8.2-9.3-12.3-20.2-12.3-32.8c0-12.6,3-23.6,9-33
			c6-9.4,13.8-17.2,23.6-23.3c19.3-11.9,43.5-18.2,72.7-18.7v-2.1c0-31.2-4.8-49.5-14.5-54.9c-3.5-1.9-7.9-2.9-13.4-2.9
			c-5.5,0-10.9,1.8-16.3,5.4c-5.4,3.6-10.3,8.2-14.6,13.9c-8.7,11.4-15,24.9-18.7,40.5c-11.4-6.8-17.2-19.9-17.2-39.1
			c0-7.8,1-16.6,3.1-26.4c4.9,0,9.5-0.7,13.9-2.1l14.8-4.6c14.5-4.5,28.7-6.7,42.6-6.7c13.9,0,25,2.1,33.2,6.2
			c8.3,4.1,14.7,10.2,19.4,18.3C1011.9,923.9,1015.8,947.6,1015.8,981.2z M913.6,1062.2c3.7,4.4,8.3,6.6,13.8,6.6
			c5.5,0,10.9-1.4,16-4.3c5.1-2.9,9.8-6.8,13.9-11.9c9.6-11.4,14.5-24.9,14.5-40.3v-28.5c-18,1.7-32.8,7.6-44.5,17.9
			c-12.7,11.1-19.1,25.1-19.1,42C908.1,1051.6,909.9,1057.8,913.6,1062.2z"/>
		<path class="st0" d="M1179.6,1068.9c-14,12.7-31.8,19.1-53.4,19.1c-19.8,0-35.4-5.7-46.8-17.2c-11.8-11.8-17.7-28.5-17.7-50
			c0-21.5,3.1-40.3,9.4-56.5c6.3-16.1,14.6-29.6,24.9-40.6c20.3-21.6,45.2-33,74.8-34.1c-1-39.6-2.3-62.3-4-68.1
			c-1.6-5.8-3.2-10.5-4.8-13.9c-1.6-3.4-3.4-6.5-5.5-9.3l-6.6-9.1h70.3c-3.6,13-5.7,25.6-6.3,37.8c-0.6,12.2-1,22.9-1.3,32.2
			c-0.3,9.3-0.5,19-0.6,29.1c-0.4,17-0.6,33.8-0.6,50.6c0,16.8,0,29.5,0.1,38.1c0.1,8.6,0.2,16.8,0.5,24.5
			c0.6,28.9,1.7,46.1,3.3,51.6c1.5,5.5,3.1,9.8,4.7,13.1c1.6,3.3,3.4,6.3,5.5,9.2l6.6,8.9h-49.9L1179.6,1068.9z M1171,1013.4
			c0.6-19.8,0.9-38.3,0.9-55.6c0-17.3-0.2-33.8-0.6-49.4c-18.6,2.8-33.5,13.8-44.7,33c-11.2,19-16.8,43-16.8,71.9
			c0,17.1,1.3,29,4,35.8c2.6,6.8,5.8,11.8,9.4,14.9c3.7,3.1,8.1,4.7,13.3,4.7c5.2,0,9.8-1.1,13.7-3.2c3.9-2.1,7.4-5.2,10.3-9.3
			C1167,1047.5,1170.5,1033.2,1171,1013.4z"/>
		<path class="st0" d="M1272.9,1084.2c5.9-20.3,8.9-55.2,8.9-104.7c0-34.8-3.1-58.8-9.3-71.9c-1.5-3.3-3.3-6.4-5.2-9.3l-6.4-8.9
			h68.4c-5.7,21.2-8.5,53.9-8.5,98c0,44.1,3,76.4,8.9,96.7H1272.9z M1325.2,837.7c-2.6,4.2-5.8,7.8-9.5,10.7
			c-3.7,2.9-8,4.3-12.7,4.3c-4.8,0-9-1.4-12.7-4.3c-3.7-2.9-6.9-6.5-9.4-10.7c-5.3-8.7-7.9-18-7.9-27.8c0-11.8,5.4-19.7,16.2-23.7
			c3.9-1.4,8.5-2.1,14.1-2.1c15.3,0,24.8,5.4,28.5,16.2c1.2,3.1,1.7,6.5,1.7,10.3c0,3.8-0.7,8.2-2.1,13.2
			C1329.9,828.8,1327.8,833.4,1325.2,837.7z"/>
		<path class="st0" d="M1380.8,1084.2c5.9-20.3,8.9-55.2,8.9-104.7c0-35.2-3.1-59.2-9.3-72.1c-1.5-3.2-3.3-6.2-5.2-9.1l-6.4-8.9
			h66.9c-1.9,6.4-3.2,12.5-3.9,18.1l-1.5,13.9c15.5-23.9,35.3-35.8,59.4-35.8c15.5,0,27.7,6,36.4,18.1c8.5,11.8,12.7,27.8,12.7,48
			v20.6c0,35.3,0.3,56.9,1,64.8c0.6,7.8,1.2,13.8,1.5,17.9c0.4,4.1,0.8,7.8,1.3,11c0.9,6,2.2,12.1,4,18.1h-56.5
			c5.9-20.3,8.9-55.2,8.9-104.7c0-19.8-1.3-33.3-3.8-40.7c-2.5-7.3-5.5-12.6-9-15.7c-3.5-3.1-8-4.7-13.7-4.7
			c-10.4,0-19.9,4.1-28.3,12.3c-7.3,7.1-12.9,16.1-16.8,27c-0.3,3.5-0.4,7.1-0.4,10.8v11c0,49.5,3,84.4,8.9,104.7H1380.8z"/>
		<path class="st0" d="M1694.2,1079.5c-12.5,5.7-24.7,8.5-36.8,8.5c-12.1,0-22.1-1.5-30.1-4.6c-8-3.1-14.8-7.6-20.4-13.5
			c-11.8-12.3-17.7-29.4-17.7-51.1c0-41.9,12-74.5,36-97.9c21.5-20.9,47.3-31.4,77.5-31.4h43.9c-3.6,12.5-5.7,24.4-6.2,35.8
			c-0.5,11.4-0.9,20.8-1.1,28c-0.2,7.3-0.4,14.6-0.5,22.1c-0.3,14.9-0.4,30.1-0.4,45.7c0,15.5-1.2,30.6-3.7,45.2
			c-2.4,14.6-5.7,27.3-9.7,38.3c-4,10.9-8.7,20.2-13.9,27.9c-5.2,7.7-10.6,14.2-16.3,19.5c-9.3,8.6-20,14.9-32.2,18.9
			c-2.6-1-5-2.9-7.4-5.6c-2.4-2.7-3.8-5.3-4.3-7.9c14.6-5.9,26.3-20.6,34.9-44.1C1689.2,1104.1,1692,1092.9,1694.2,1079.5z
			 M1698.4,1019.8l0.6-57.8c0-23.3-0.8-40.9-2.5-52.8c-18.2,3.6-32.6,14.4-43.2,32.4c-10.7,18.4-16,41.6-16,69.6
			c0,17.3,1.3,29.6,4,36.8c2.6,7.2,5.8,12.5,9.4,15.8c3.7,3.3,8.1,5,13.3,5c5.2,0,9.8-1,13.8-3.1c4-2.1,7.5-5.1,10.6-9.3
			C1695.1,1047.5,1698.4,1035.3,1698.4,1019.8z"/>
	</g>
</g>
</svg>
