<?xml version="1.0" encoding="utf-8"?>
<!-- Generator: Adobe Illustrator 27.5.0, SVG Export Plug-In . SVG Version: 6.00 Build 0)  -->
<svg version="1.1" id="Layer_1" xmlns="http://www.w3.org/2000/svg" xmlns:xlink="http://www.w3.org/1999/xlink" x="0px" y="0px"
	 viewBox="0 0 1634.8 1238.2" style="enable-background:new 0 0 1634.8 1238.2;" xml:space="preserve">
<style type="text/css">
	.st0{fill:#FDF1DE;}
	.st1{fill:#694C70;}
	.st2{fill:#FAAD97;}
	.st3{fill:#2D1F32;}
	.st4{fill:#EC1A24;}
</style>
<g>
	<g>
		<g>
			<path class="st0" d="M299.3,336c0,0,161.1-252.3,489-250.9S1286.7,336,1286.7,336s-170.6,227.5-509.3,227.5
				C411.6,563.6,299.3,336,299.3,336z"/>
		</g>
		<path class="st1" d="M777.5,583.8c-85.7,0-165-12.3-235.6-36.7c-56.9-19.6-108.4-46.9-153-81.3C312.2,406.8,282.4,347.5,281.1,345
			c-3.1-6.3-2.7-13.9,1.1-19.8c1.7-2.7,43.1-66.8,126.2-131.1c76.7-59.3,204.9-130,379.9-129.2c174.9,0.7,305.5,71.1,384.2,130
			c85.3,63.8,129,127.1,130.9,129.7c4.9,7.1,4.7,16.6-0.5,23.5c-1.8,2.4-45.7,60.3-132.6,118.4
			C1090.5,520.1,957.5,583.8,777.5,583.8z M323.2,337.1c11.4,18.2,40,58.4,92.2,98.1c41.1,31.3,88.6,56.3,141.2,74.2
			c66,22.5,140.4,33.9,220.9,33.9c169.1,0,294-59.5,369-109.4c59.4-39.5,97.8-79.5,114.5-98.5c-16.4-20.7-54.8-65.1-113.8-109.1
			c-47-35-97.7-62.9-150.7-82.9c-66.1-25-136.2-37.8-208.2-38.1c-72-0.4-141.4,12.1-206.5,36.9C529.5,162.1,480,190,434.4,225.1
			C374.9,270.9,337.7,317.3,323.2,337.1z M299.3,336L299.3,336L299.3,336z"/>
	</g>
	<g>
		<g>
			<circle class="st2" cx="784.5" cy="324.3" r="255.4"/>
		</g>
	</g>
	<g>
		<g>
			<g>
				<path class="st3" d="M984.6,219.8c-0.7-1.1-1.5-2.1-2.3-3.2c-1.1-1.4-2.3-2.8-4-3.2c-3.4-0.8-6.1,2.7-7.7,5.7
					c-16.9,31.2-31.8,60.6-56.2,87.2c-14.3,15.7-35.1,34-58,30c-9.2-1.6-18.1-6.6-23.4-14.3c-0.9-1.3-9.5-19-7.7-20
					c51.5-26.7,56.1-86.7,56.4-103.4c0-2.4-1.3-4.3-2.9-4c-52.5,9.9-68.5,86.9-68.5,86.9c-9-7.2-17.8-9.8-25.6-10v0c0,0,0,0,0,0
					c0,0,0,0,0,0v0c-7.8,0.2-16.6,2.7-25.6,10c0,0-15.9-77-68.5-86.9c-1.6-0.3-3,1.6-2.9,4c0.3,16.8,4.9,76.8,56.4,103.4
					c1.8,0.9-6.9,18.7-7.7,20c-5.2,7.7-14.2,12.7-23.4,14.3c-23,4-43.7-14.3-58-30c-24.3-26.6-39.2-56-56.2-87.2
					c-1.6-3-4.3-6.5-7.7-5.7c-1.7,0.4-2.9,1.8-4,3.2c-0.8,1-1.6,2.1-2.3,3.2c-25.5,37.1-14.9,96.9-3.8,136.7
					C601.2,430,679,468.9,750.4,443c-2.5,0.9-4,17.6-4.3,19.8c-1.7,12.4-2,25.1,1.4,37.2c0.8,3,2.6,6.5,5.7,6.5
					c2.1,0,3.9-1.7,5.1-3.5c8.1-11.6,6.3-54.8,26.3-56.1c20,1.3,18.2,44.5,26.3,56.1c1.2,1.7,2.9,3.5,5.1,3.5c3.1,0,4.8-3.5,5.7-6.5
					c3.4-12.1,3.2-24.9,1.4-37.2c-0.3-2.2-1.8-18.9-4.3-19.8c71.4,25.9,149.2-13,169.7-86.5C999.4,316.7,1010,256.9,984.6,219.8z"/>
			</g>
		</g>
	</g>
	<g>
		<g>
			<circle class="st4" cx="759.3" cy="316.7" r="12.7"/>
		</g>
	</g>
	<g>
		<g>
			<circle class="st4" cx="809.8" cy="316.7" r="12.7"/>
		</g>
	</g>
	<g>
		<path class="st1" d="M777.5,583.8c-85.7,0-165-12.3-235.6-36.7c-56.9-19.6-108.4-46.9-153-81.3C312.2,406.8,282.4,347.5,281.1,345
			c-3.1-6.3-2.7-13.9,1.1-19.8c1.7-2.7,43.1-66.8,126.2-131.1c76.7-59.3,204.9-130,379.9-129.2c174.9,0.7,305.5,71.1,384.2,130
			c85.3,63.8,129,127.1,130.9,129.7c4.9,7.1,4.7,16.6-0.5,23.5c-1.8,2.4-45.7,60.3-132.6,118.4
			C1090.5,520.1,957.5,583.8,777.5,583.8z M323.2,337.1c11.4,18.2,40,58.4,92.2,98.1c41.1,31.3,88.6,56.3,141.2,74.2
			c66,22.5,140.4,33.9,220.9,33.9c169.1,0,294-59.5,369-109.4c59.4-39.5,97.8-79.5,114.5-98.5c-16.4-20.7-54.8-65.1-113.8-109.1
			c-47-35-97.7-62.9-150.7-82.9c-66.1-25-136.2-37.8-208.2-38.1c-72-0.4-141.4,12.1-206.5,36.9C529.5,162.1,480,190,434.4,225.1
			C374.9,270.9,337.7,317.3,323.2,337.1z M299.3,336L299.3,336L299.3,336z"/>
	</g>
</g>
<g>
	<g>
		<path class="st0" d="M515.7,1006.7c3.5,5,5.2,11,5.2,18c0,7-0.5,13.1-1.4,18.2c-1,5.1-2.3,10-3.9,14.6
			c-3.8,10.1-8.7,16.8-14.6,20.1H346.8c10.1-6.3,16.7-11.7,19.8-16.3c5.9-8.7,8.8-19.9,8.8-33.8c-0.1-34-0.2-64.8-0.2-92.2V834.9
			c0-18.5-3.1-32.2-9.2-40.8c-2.2-3.2-4.9-6.5-8.1-9.8h78.8c-7.5,10.9-11.8,22.1-12.8,33.6c-0.3,3.8-0.4,8.1-0.4,12.7v175.7
			c0,23.9,1.3,38.2,3.8,42.9c2.6,4.7,5.6,7.4,9.2,8.2c3.6,0.8,9,1.2,16.3,1.2s14.2-1.3,20.7-3.8c6.5-2.6,12.3-6.1,17.5-10.7
			C499.7,1036,507.9,1023.6,515.7,1006.7z"/>
		<path class="st0" d="M621.6,880.2c53.8,0,80.7,29.1,80.7,87.3c0,35.3-7.4,63.2-22.2,83.8c-14.4,20.2-33.9,30.3-58.5,30.3
			s-44-10.1-58.5-30.3c-14.8-20.6-22.2-48.5-22.2-83.8C540.8,909.3,567.7,880.2,621.6,880.2z M596.7,916.6
			c-5.1,11.5-7.6,30.9-7.6,58.1c0,58.4,10.8,87.6,32.4,87.6c11.5,0,19.8-7.8,24.8-23.4c5-15.6,7.6-37,7.6-64.2s-2.5-46.6-7.6-58.1
			c-5.1-11.5-13.3-17.3-24.8-17.3C610.1,899.4,601.8,905.1,596.7,916.6z"/>
		<path class="st0" d="M846.7,1073.1c-12.4,5.6-24.6,8.4-36.6,8.4c-12,0-22-1.5-29.9-4.6c-7.9-3.1-14.7-7.5-20.3-13.4
			c-11.8-12.3-17.6-29.2-17.6-50.8c0-41.7,12-74.1,35.9-97.4c21.3-20.8,47-31.3,77.1-31.3h43.7c-3.6,12.4-5.6,24.3-6.1,35.7
			c-0.5,11.4-0.9,20.7-1.1,27.9c-0.2,7.2-0.4,14.5-0.5,22c-0.3,14.8-0.4,30-0.4,45.4c0,15.5-1.2,30.5-3.6,45
			c-2.4,14.5-5.7,27.2-9.7,38.1c-4,10.9-8.6,20.1-13.8,27.8c-5.2,7.7-10.6,14.1-16.2,19.4c-9.2,8.6-19.9,14.8-32,18.8
			c-2.6-1-5-2.9-7.4-5.6c-2.4-2.7-3.8-5.3-4.3-7.9c14.6-5.9,26.1-20.5,34.7-43.9C841.8,1097.6,844.5,1086.4,846.7,1073.1z
			 M850.9,1013.6l0.6-57.5c0-23.1-0.8-40.7-2.5-52.5c-18.2,3.6-32.5,14.3-43,32.2c-10.6,18.3-15.9,41.4-15.9,69.2
			c0,17.3,1.3,29.5,3.9,36.6c2.6,7.2,5.8,12.4,9.4,15.7c3.6,3.3,8.1,5,13.2,5c5.2,0,9.7-1,13.7-3.1c4-2,7.5-5.1,10.5-9.2
			C847.6,1041.3,850.9,1029.1,850.9,1013.6z"/>
		<path class="st0" d="M945.1,1077.7c5.9-20.2,8.8-54.9,8.8-104.1c0-34.6-3.1-58.5-9.2-71.5c-1.5-3.3-3.3-6.4-5.2-9.2l-6.3-8.8h68.1
			c-5.6,21.1-8.4,53.6-8.4,97.5c0,43.9,2.9,76,8.8,96.2H945.1z M997.1,832.4c-2.6,4.2-5.8,7.8-9.5,10.6c-3.7,2.9-7.9,4.3-12.7,4.3
			c-4.7,0-9-1.4-12.7-4.3c-3.7-2.9-6.8-6.4-9.4-10.6c-5.2-8.7-7.9-17.9-7.9-27.6c0-11.8,5.4-19.6,16.1-23.6c3.8-1.4,8.5-2.1,14-2.1
			c15.2,0,24.7,5.4,28.4,16.1c1.2,3.1,1.7,6.5,1.7,10.3c0,3.8-0.7,8.2-2.1,13.1C1001.8,823.6,999.8,828.2,997.1,832.4z"/>
		<path class="st0" d="M1052.5,1077.7c5.9-20.2,8.8-54.9,8.8-104.1c0-35-3.1-58.9-9.2-71.7c-1.5-3.2-3.3-6.2-5.2-9l-6.3-8.8h66.5
			c-1.9,6.4-3.2,12.4-3.8,18l-1.5,13.8c15.5-23.8,35.2-35.7,59.1-35.7c15.5,0,27.5,6,36.2,18c8.4,11.8,12.7,27.7,12.7,47.8v20.5
			c0,35.2,0.3,56.6,1,64.4c0.6,7.8,1.2,13.7,1.5,17.8c0.4,4.1,0.8,7.7,1.3,10.9c0.9,6,2.2,12,4,18h-56.2
			c5.9-20.2,8.8-54.9,8.8-104.1c0-19.7-1.2-33.2-3.7-40.5c-2.5-7.3-5.5-12.5-8.9-15.6c-3.5-3.1-8-4.7-13.6-4.7
			c-10.4,0-19.8,4.1-28.2,12.3c-7.3,7-12.8,16-16.7,26.8c-0.3,3.5-0.4,7-0.4,10.7v10.9c0,49.2,2.9,83.9,8.8,104.1H1052.5z"/>
	</g>
</g>
</svg>
