<?xml version="1.0" encoding="utf-8"?>
<!-- Generator: Adobe Illustrator 27.5.0, SVG Export Plug-In . SVG Version: 6.00 Build 0)  -->
<svg version="1.1" id="Layer_1" xmlns="http://www.w3.org/2000/svg" xmlns:xlink="http://www.w3.org/1999/xlink" x="0px" y="0px"
	 viewBox="0 0 2189.4 2189.1" style="enable-background:new 0 0 2189.4 2189.1;" xml:space="preserve">
<style type="text/css">
	.st0{fill:#FDF1DE;}
	.st1{fill:#694C70;}
	.st2{fill:#FAAD97;}
	.st3{fill:#2D1F32;}
	.st4{fill:#EC1A24;}
</style>
<g>
	<g>
		<g>
			<path class="st0" d="M82.4,1621.9c-1.6,13.1-2.5,23.5-2.5,31.2c0,7.7,0.9,14.9,2.8,21.4c1.9,6.5,4.6,12.2,8.1,17
				c7.6,10.2,17.1,15.3,28.7,15.3c22.2,0,33.2-12.2,33.2-36.6c0-19.6-11.4-40.5-34.2-62.5L99,1588.6c-17.2-16.6-29-30-35.3-40
				C51.3,1528.7,45,1509,45,1489.3c0-16,5.2-29.4,15.5-40.2c12.5-13.2,30.4-19.8,53.8-19.8c9.2,0,16.1,0.4,20.8,1.3
				c8.7,1.6,14.5,2.5,17.4,2.5c7.3,0,13-2.3,17-6.8c1.5-1.6,3.1-3.8,4.9-6.4c9.2,5.2,13.8,24.1,13.8,56.8c0,20.9-2.1,36.3-6.2,46.3
				c-1.4,3.4-3,5.5-4.7,6.4c-2-19-8.2-36-18.5-51c-12.1-17.6-26.1-26.4-41.9-26.4c-13.6,0-22,6.2-25.1,18.7
				c-0.9,3.5-1.3,7.9-1.3,13.1c0,5.2,1.6,11.2,4.7,17.8c3.1,6.7,7.3,13.3,12.4,19.9c5.1,6.6,11,13.2,17.7,19.9
				c20.1,20.6,33.5,34.6,40.1,41.9c6.6,7.3,12.5,14.9,17.7,22.7c11.3,17.5,17,34.4,17,50.8c0,19.8-7.7,36.1-23,49.1
				c-15.9,13.2-36.2,19.8-61.2,19.8c-20.6,0-38.4-5.2-53.2-15.5c-16.4-11.3-24.5-26.3-24.5-44.9c4.9-17.5,15.6-30.3,32.1-38.5
				C74.4,1624.5,78.5,1622.9,82.4,1621.9z"/>
			<path class="st0" d="M365.1,1657.7c4.5,3,6.8,8.3,6.8,15.8c0,7.5-1,14.1-3,19.7c-2,5.7-5.5,11-10.6,15.9
				c-11.3,11.1-28.6,16.6-51.7,16.6c-26.9,0-47.5-9.9-61.5-29.8c-12.5-17.7-18.7-41.7-18.7-71.9c0-30.5,8.4-54.4,25.3-71.7
				c16-16.5,37.6-24.7,64.9-24.7c19,0,33.9,5.5,44.6,16.6c8.4,8.8,12.6,19,12.6,30.5s-2.2,21.9-6.7,31.2c-4.5,9.3-11,17.2-19.7,23.9
				c-17.9,13.8-42.9,21.1-75,21.9c2.6,25.3,10.6,42.2,23.8,50.8c4.8,3,11.1,4.5,19.1,4.5c7.9,0,16.4-4.2,25.3-12.5
				C349.5,1686.1,357.6,1673.9,365.1,1657.7z M271.2,1633.6c39.8-2.6,59.7-21.9,59.7-57.8c0-13.5-4-22.5-12.1-27.2
				c-2.8-1.5-6.4-2.3-11-2.3s-9.1,1.4-13.7,4.2c-4.6,2.8-8.6,7.3-12,13.6c-7.3,13.7-11,34.9-11,63.6V1633.6z"/>
			<path class="st0" d="M545.5,1657.7c4.5,3,6.8,8.3,6.8,15.8c0,7.5-1,14.1-3,19.7c-2,5.7-5.5,11-10.6,15.9
				c-11.3,11.1-28.6,16.6-51.7,16.6c-26.9,0-47.5-9.9-61.5-29.8c-12.5-17.7-18.7-41.7-18.7-71.9c0-30.5,8.4-54.4,25.3-71.7
				c16-16.5,37.6-24.7,64.9-24.7c19,0,33.9,5.5,44.6,16.6c8.4,8.8,12.6,19,12.6,30.5s-2.2,21.9-6.7,31.2c-4.5,9.3-11,17.2-19.7,23.9
				c-17.9,13.8-42.9,21.1-75,21.9c2.6,25.3,10.6,42.2,23.8,50.8c4.8,3,11.1,4.5,19.1,4.5c7.9,0,16.4-4.2,25.3-12.5
				C529.9,1686.1,538.1,1673.9,545.5,1657.7z M451.7,1633.6c39.8-2.6,59.7-21.9,59.7-57.8c0-13.5-4-22.5-12.1-27.2
				c-2.8-1.5-6.4-2.3-11-2.3s-9.1,1.4-13.7,4.2c-4.6,2.8-8.6,7.3-12,13.6c-7.3,13.7-11,34.9-11,63.6V1633.6z"/>
			<path class="st0" d="M643.2,1641.9c0,36.5,2.5,63.2,7.4,80.1h-55.7c3.5-12.2,5.7-26.6,6.6-43.2c1.9-40.1,2.8-71.3,2.8-93.5
				c0-22.2-0.1-37-0.2-44.7c-0.1-7.6-0.3-15.3-0.4-22.9c-0.8-27.1-2-44.3-3.9-51.6c-1.8-7.4-3.6-12.7-5.2-16
				c-2.4-5.3-6.2-11-11.5-17H652c-3.5,12.7-5.6,24.7-6.2,36.1l-1.3,27.4c-0.9,20.8-1.3,36.6-1.3,47.4c0,10.8,0.1,18.1,0.3,21.9
				c0.2,3.8,0.7,6.9,1.4,9.3c1.5,5,5.3,7.4,11.4,7.2c6.1-0.2,11.6-1.5,16.5-3.9c4.9-2.3,8.9-5.3,12.1-9c6.3-7,9.4-14.5,9.4-22.5
				s-0.9-13.2-2.8-15.7h54.6c-1.5,3-2.9,6.1-4.1,9.2c-1.2,3.1-2.5,6.2-3.9,9.3c-8.9,19.9-23,34.3-42.3,43.2
				c1.3,26.1,9.8,52.2,25.7,78.4c15,24.3,31.5,41.2,49.5,50.6h-63.2c-12.6-6-22.8-26.3-30.6-60.8c-2.6-11.7-4.4-23-5.3-33.8
				c-0.9-10.8-2.3-17.9-4.2-21.2c-1.9-3.3-5.3-5-10.2-5c-9.6,0-14.3,8.9-14.3,26.8V1641.9z"/>
			<path class="st0" d="M1009.6,1659.4l0.2-41.9c0-26.3-0.7-43.5-2.1-51.5c-1.4-8.1-2.5-13.7-3.3-16.9c-0.8-3.2-1.8-6.2-2.9-9
				l-3.6-8.9h55.7l-0.9,8.7c-0.8,6-1.3,14.9-1.5,26.4l-0.8,28.7c-0.6,22-0.9,42.6-0.9,61.7c0,19.1-1.2,35.5-3.5,49.1
				c-2.3,13.6-5.4,25.5-9.3,35.9c-3.9,10.3-8.4,19.2-13.4,26.7c-5,7.5-10.3,13.7-15.9,18.8c-9.6,9.1-20.3,15.6-32.1,19.6
				c-2.5-1-4.9-2.9-7.3-5.6c-2.3-2.7-3.7-5.3-4.2-7.6c11.1-5.7,19.9-14.3,26.6-26.1c9.4-16.6,15.4-40.6,17.9-71.9
				c-14.6,20-32.5,30-53.8,30c-15.1,0-26.8-5.9-35.1-17.7c-7.9-11.5-11.9-27.2-11.9-47.2v-25.5c0-5.7-0.1-11.5-0.2-17.4v-17.2
				c-0.3-11-0.7-19.5-1.2-25.6c-0.6-6.1-1.2-11.2-1.9-15.3c-0.7-4.1-1.5-7.7-2.5-11c-1-3.2-2.1-6.2-3.4-9l-4.2-8.7h57.6
				c-3.3,18-4.9,52-4.9,102.1c0,20.4,1.1,34,3.2,40.8c2.1,6.8,4.8,11.7,8,14.8c3.2,3.1,7.3,4.6,12.4,4.6c5,0,9.5-0.8,13.3-2.4
				c3.8-1.6,7.3-3.7,10.5-6.3c6.2-4.8,11.3-11.4,15.5-19.8V1659.4z"/>
			<path class="st0" d="M1238.8,1621.1l-0.6,36.2c0,22.5,2.1,37.9,6.2,46.1c2.5,4.9,5.5,8.7,8.9,11.3l8.9,7.2h-54.8l-5.9-21.9
				c-14.2,17.1-34.5,25.7-60.8,25.7c-15,0-27.1-5-36.2-15.1c-8.1-9.1-12.1-19.8-12.1-32.1c0-12.3,2.9-23.1,8.8-32.3
				c5.9-9.2,13.6-16.8,23.1-22.8c18.9-11.7,42.6-17.8,71.2-18.3v-2.1c0-30.6-4.7-48.5-14.2-53.8c-3.4-1.9-7.8-2.8-13.1-2.8
				c-5.4,0-10.7,1.8-16,5.3c-5.3,3.5-10.1,8.1-14.3,13.6c-8.6,11.2-14.7,24.4-18.3,39.6c-11.2-6.7-16.8-19.4-16.8-38.3
				c0-7.7,1-16.3,3-25.9c4.8,0,9.3-0.7,13.6-2.1l14.5-4.5c14.2-4.4,28.1-6.6,41.7-6.6s24.4,2,32.6,6c8.1,4,14.4,10,19,17.9
				C1235,1564.9,1238.8,1588.1,1238.8,1621.1z M1138.7,1700.4c3.6,4.3,8.1,6.4,13.5,6.4c5.4,0,10.6-1.4,15.7-4.2
				c5-2.8,9.6-6.7,13.6-11.6c9.4-11.2,14.2-24.4,14.2-39.5v-27.9c-17.6,1.6-32.2,7.5-43.6,17.6c-12.5,10.8-18.7,24.5-18.7,41.2
				C1133.3,1690.1,1135.1,1696.1,1138.7,1700.4z"/>
			<path class="st0" d="M1470.1,1635.5c0,40.8,2.5,69.6,7.4,86.5h-55.7c3.5-12.2,5.7-26.6,6.6-43.2c1.9-40.1,2.8-71.3,2.8-93.5
				c0-22.2-0.1-37-0.2-44.7c-0.1-7.6-0.3-15.3-0.4-22.9c-0.8-27.3-2-44.5-3.9-51.6c-1.8-7.1-3.5-12.3-5.1-15.5
				c-1.6-3.2-3.4-6.1-5.4-8.8l-6.2-8.7h68.9c-3.5,12.7-5.6,24.9-6.1,36.5c-0.6,11.6-1,21.9-1.3,30.9c-0.3,8.9-0.6,18.3-0.8,27.9
				c-0.3,16.1-0.4,35.3-0.4,57.6L1470.1,1635.5z"/>
			<path class="st0" d="M1664.4,1621.1l-0.6,36.2c0,22.5,2.1,37.9,6.2,46.1c2.5,4.9,5.5,8.7,8.9,11.3l8.9,7.2H1633l-5.9-21.9
				c-14.2,17.1-34.5,25.7-60.8,25.7c-15,0-27.1-5-36.2-15.1c-8.1-9.1-12.1-19.8-12.1-32.1c0-12.3,2.9-23.1,8.8-32.3
				c5.9-9.2,13.6-16.8,23.1-22.8c18.9-11.7,42.6-17.8,71.2-18.3v-2.1c0-30.6-4.7-48.5-14.2-53.8c-3.4-1.9-7.8-2.8-13.1-2.8
				c-5.4,0-10.7,1.8-16,5.3c-5.3,3.5-10.1,8.1-14.3,13.6c-8.6,11.2-14.7,24.4-18.3,39.6c-11.2-6.7-16.8-19.4-16.8-38.3
				c0-7.7,1-16.3,3-25.9c4.8,0,9.3-0.7,13.6-2.1l14.5-4.5c14.2-4.4,28.1-6.6,41.7-6.6s24.4,2,32.6,6c8.1,4,14.4,10,19,17.9
				C1660.5,1564.9,1664.4,1588.1,1664.4,1621.1z M1564.2,1700.4c3.6,4.3,8.1,6.4,13.5,6.4c5.4,0,10.6-1.4,15.7-4.2
				c5-2.8,9.6-6.7,13.6-11.6c9.4-11.2,14.2-24.4,14.2-39.5v-27.9c-17.6,1.6-32.2,7.5-43.6,17.6c-12.5,10.8-18.7,24.5-18.7,41.2
				C1558.8,1690.1,1560.6,1696.1,1564.2,1700.4z"/>
			<path class="st0" d="M1771.4,1455.7c-2.6,9.7-4,21.3-4,34.8c0,13.5,0.3,22.2,0.8,26c0.6,3.8,1.5,6.8,2.7,9.1
				c2.4,3.8,7,5.7,14,5.7h50.6c0,7-1.7,12.5-5.1,16.2c-6.2,6.8-13.7,10.2-22.7,10.2c-4.4,0-8.3-0.6-11.7-1.9
				c-6.2-2.5-11-3.8-14.3-3.8s-6.2,0.7-8.3,2c-2.1,1.3-3.8,3.2-5.1,5.8c-2.3,4.5-3.4,14.4-3.4,29.6c0,15.2,0.5,30.8,1.4,46.8
				c0.9,16,3.3,29.4,7.1,40.1c3.8,10.8,9.5,18.9,17.2,24.3c7.7,5.4,18.2,8.1,31.7,8.1c0,3.9-2.6,8.6-7.9,14c-1.4,1.5-2.6,2.5-3.6,3
				c-22.3,0-39-2.6-50-7.9c-12.7-6.3-21.8-17.5-27.2-33.6c-5.4-16.4-8.1-40.6-8.1-72.7c0-28.1-0.8-44.7-2.3-49.7s-2.9-8.5-4.2-10.1
				c-1.5-1.9-5.2-4.2-11-7c7.8-5.9,15.5-16.9,23.2-33l9.4-19.8c6.7-15.1,12.4-24.9,17.1-29.4
				C1762.6,1458,1767.1,1455.7,1771.4,1455.7z"/>
			<path class="st0" d="M1987.6,1657.7c4.5,3,6.8,8.3,6.8,15.8c0,7.5-1,14.1-3,19.7c-2,5.7-5.5,11-10.6,15.9
				c-11.3,11.1-28.6,16.6-51.7,16.6c-26.9,0-47.5-9.9-61.5-29.8c-12.5-17.7-18.7-41.7-18.7-71.9c0-30.5,8.4-54.4,25.3-71.7
				c16-16.5,37.6-24.7,64.9-24.7c19,0,33.9,5.5,44.6,16.6c8.4,8.8,12.6,19,12.6,30.5s-2.2,21.9-6.7,31.2c-4.5,9.3-11,17.2-19.7,23.9
				c-17.9,13.8-42.9,21.1-75,21.9c2.6,25.3,10.6,42.2,23.8,50.8c4.8,3,11.1,4.5,19.1,4.5s16.4-4.2,25.3-12.5
				C1972,1686.1,1980.2,1673.9,1987.6,1657.7z M1893.8,1633.6c39.8-2.6,59.7-21.9,59.7-57.8c0-13.5-4-22.5-12.1-27.2
				c-2.8-1.5-6.4-2.3-11-2.3s-9.1,1.4-13.7,4.2c-4.6,2.8-8.6,7.3-12,13.6c-7.3,13.7-11,34.9-11,63.6V1633.6z"/>
			<path class="st0" d="M2040.5,1721.9c5.8-19.9,8.7-54.1,8.7-102.5c0-34.5-2.8-58-8.3-70.6c-2.3-5.2-6.3-11-12.1-17.6h67
				c-2.3,7.9-4.1,18.8-5.5,32.7c11.8-14.8,28.3-25.4,49.5-31.5c9.1-2.6,15.7-6.8,19.8-12.5c4.2,9.9,6.2,18.5,6.2,25.7
				c0,7.2-0.4,13.8-1.1,19.9c-0.8,6.1-1.9,12.1-3.4,17.8c-3.3,12.5-7.6,22.2-13,29.1c-4.7-24.5-11.9-38.9-21.7-43
				c-11.3-4.9-22.4,1.8-33.2,20c-2.3,3.8-4.2,7.8-5.7,12.1c-0.1,2.9-0.2,5.9-0.2,8.9c0,3,0,6,0,9.1c0,48.5,2.9,82.6,8.7,102.5
				H2040.5z"/>
		</g>
	</g>
	<g>
		<g>
			<g>
				<path class="st0" d="M276.7,842.5c0,0,263.2-412.3,798.9-410s814.4,410,814.4,410s-278.7,371.7-832,371.7
					C460.2,1214.2,276.7,842.5,276.7,842.5z"/>
			</g>
			<path class="st1" d="M1057.9,1247.2c-140,0-269.5-20.1-385-59.9c-93-32-177.1-76.7-250-132.9C297.8,958,249,861.2,247,857.1
				c-5.1-10.4-4.4-22.7,1.8-32.4c2.8-4.4,70.4-109.1,206.2-214.2c125.2-97,334.7-212.4,620.7-211.1
				c285.7,1.2,499.1,116.2,627.7,212.4c139.4,104.3,210.8,207.6,213.8,212c8,11.7,7.6,27.1-0.8,38.5c-3,4-74.7,98.5-216.6,193.5
				C1569.3,1143.1,1352.1,1247.2,1057.9,1247.2z M315.8,844.2c18.6,29.7,65.4,95.4,150.6,160.3c67.2,51.2,144.8,92,230.7,121.3
				c107.9,36.8,229.3,55.4,360.9,55.4c276.3,0,480.3-97.2,602.8-178.7c97-64.5,159.8-129.8,187.1-161
				c-26.8-33.8-89.5-106.3-186-178.2c-76.7-57.1-159.6-102.7-246.3-135.5c-108-40.8-222.5-61.8-340.2-62.3
				c-117.6-0.6-231,19.8-337.3,60.3c-85.2,32.5-166.2,78-240.6,135.3C400.3,736,339.5,811.9,315.8,844.2z M276.7,842.5L276.7,842.5
				L276.7,842.5z"/>
		</g>
		<g>
			<g>
				<circle class="st2" cx="1069.5" cy="823.3" r="417.2"/>
			</g>
		</g>
		<g>
			<g>
				<g>
					<path class="st3" d="M1396.3,652.5c-1.2-1.8-2.5-3.5-3.8-5.2c-1.7-2.2-3.8-4.5-6.5-5.2c-5.5-1.3-9.9,4.4-12.6,9.3
						c-27.7,51-52,99.1-91.8,142.5c-23.4,25.6-57.3,55.6-94.8,49c-15-2.6-29.6-10.8-38.2-23.4c-1.5-2.1-15.6-31.1-12.7-32.6
						c84.1-43.6,91.7-141.6,92.1-169c0.1-3.9-2.2-7-4.8-6.5c-85.9,16.2-111.9,142-111.9,142c-14.7-11.8-29.1-16-41.8-16.3v0
						c0,0,0,0,0,0c0,0,0,0,0,0v0c-12.7,0.3-27.1,4.5-41.8,16.3c0,0-26-125.8-111.9-142c-2.6-0.5-4.8,2.6-4.8,6.5
						c0.4,27.4,8,125.4,92.1,169c2.9,1.5-11.2,30.5-12.7,32.6c-8.6,12.6-23.2,20.8-38.2,23.4c-37.5,6.6-71.4-23.4-94.8-49
						c-39.7-43.5-64.1-91.5-91.8-142.5c-2.7-5-7.1-10.6-12.6-9.3c-2.8,0.6-4.8,2.9-6.5,5.2c-1.3,1.7-2.6,3.4-3.8,5.2
						c-41.6,60.6-24.3,158.3-6.2,223.4c33.5,120.2,160.6,183.6,277.2,141.3c-4.1,1.5-6.5,28.8-7.1,32.4c-2.9,20.2-3.2,41,2.4,60.8
						c1.4,4.9,4.2,10.5,9.3,10.6c3.5,0,6.3-2.8,8.3-5.6c13.2-19,10.3-89.5,42.9-91.7c32.6,2.2,29.7,72.7,42.9,91.7
						c2,2.9,4.8,5.7,8.3,5.6c5.1,0,7.9-5.7,9.3-10.6c5.6-19.8,5.2-40.6,2.4-60.8c-0.5-3.6-3-30.9-7.1-32.4
						c116.6,42.3,243.7-21.2,277.2-141.3C1420.6,810.8,1437.9,713.1,1396.3,652.5z"/>
				</g>
			</g>
		</g>
		<g>
			<g>
				<circle class="st4" cx="1028.3" cy="810.9" r="20.7"/>
			</g>
		</g>
		<g>
			<g>
				<circle class="st4" cx="1110.7" cy="810.9" r="20.7"/>
			</g>
		</g>
		<g>
			<path class="st1" d="M1057.9,1247.2c-140,0-269.5-20.1-385-59.9c-93-32-177.1-76.7-250-132.9C297.8,958,249,861.2,247,857.1
				c-5.1-10.4-4.4-22.7,1.8-32.4c2.8-4.4,70.4-109.1,206.2-214.2c125.2-97,334.7-212.4,620.7-211.1
				c285.7,1.2,499.1,116.2,627.7,212.4c139.4,104.3,210.8,207.6,213.8,212c8,11.7,7.6,27.1-0.8,38.5c-3,4-74.7,98.5-216.6,193.5
				C1569.3,1143.1,1352.1,1247.2,1057.9,1247.2z M315.8,844.2c18.6,29.7,65.4,95.4,150.6,160.3c67.2,51.2,144.8,92,230.7,121.3
				c107.9,36.8,229.3,55.4,360.9,55.4c276.3,0,480.3-97.2,602.8-178.7c97-64.5,159.8-129.8,187.1-161
				c-26.8-33.8-89.5-106.3-186-178.2c-76.7-57.1-159.6-102.7-246.3-135.5c-108-40.8-222.5-61.8-340.2-62.3
				c-117.6-0.6-231,19.8-337.3,60.3c-85.2,32.5-166.2,78-240.6,135.3C400.3,736,339.5,811.9,315.8,844.2z M276.7,842.5L276.7,842.5
				L276.7,842.5z"/>
		</g>
	</g>
</g>
</svg>
