<?xml version="1.0" encoding="utf-8"?>
<!-- Generator: Adobe Illustrator 27.5.0, SVG Export Plug-In . SVG Version: 6.00 Build 0)  -->
<svg version="1.1" id="Layer_1" xmlns="http://www.w3.org/2000/svg" xmlns:xlink="http://www.w3.org/1999/xlink" x="0px" y="0px"
	 viewBox="0 0 673.5 638.9" style="enable-background:new 0 0 673.5 638.9;" xml:space="preserve">
<style type="text/css">
	.st0{fill:#FDF1DE;}
	.st1{fill:#694C70;}
	.st2{fill:#FAAD97;}
	.st3{fill:#2D1F32;}
	.st4{fill:#EC1A24;}
</style>
<g>
	<g>
		<g>
			<path class="st0" d="M22.8,326.6c0,0,102.5-160.6,311.2-159.7c208.7,0.9,317.2,159.7,317.2,159.7S542.6,471.3,327.1,471.3
				C94.3,471.3,22.8,326.6,22.8,326.6z"/>
		</g>
		<path class="st1" d="M327.1,484.2c-54.5,0-105-7.8-149.9-23.3c-36.2-12.5-69-29.9-97.4-51.7C31,371.6,12,333.8,11.2,332.3
			c-2-4-1.7-8.8,0.7-12.6c1.1-1.7,27.4-42.5,80.3-83.4C141,198.5,222.6,153.5,334,154c111.3,0.5,194.4,45.3,244.5,82.7
			c54.3,40.6,82.1,80.9,83.3,82.6c3.1,4.5,3,10.6-0.3,15c-1.2,1.6-29.1,38.4-84.4,75.4C526.3,443.7,441.6,484.2,327.1,484.2z
			 M38,327.2c7.2,11.6,25.5,37.2,58.6,62.4c26.2,19.9,56.4,35.8,89.8,47.2c42,14.3,89.3,21.6,140.6,21.6
			c107.6,0,187.1-37.9,234.8-69.6c37.8-25.1,62.2-50.6,72.9-62.7c-10.4-13.2-34.9-41.4-72.4-69.4c-29.9-22.3-62.2-40-95.9-52.8
			c-42.1-15.9-86.7-24.1-132.5-24.3c-45.8-0.2-90,7.7-131.4,23.5c-33.2,12.7-64.7,30.4-93.7,52.7C70.9,285.1,47.2,314.7,38,327.2z
			 M22.8,326.6L22.8,326.6L22.8,326.6z"/>
	</g>
	<g>
		<g>
			<circle class="st2" cx="331.6" cy="319.1" r="162.5"/>
		</g>
	</g>
	<g>
		<g>
			<g>
				<path class="st3" d="M458.9,252.6c-0.5-0.7-1-1.4-1.5-2c-0.7-0.9-1.5-1.8-2.5-2c-2.1-0.5-3.9,1.7-4.9,3.6
					c-10.8,19.9-20.3,38.6-35.7,55.5c-9.1,10-22.3,21.7-36.9,19.1c-5.9-1-11.5-4.2-14.9-9.1c-0.6-0.8-6.1-12.1-4.9-12.7
					c32.7-17,35.7-55.1,35.9-65.8c0-1.5-0.9-2.7-1.9-2.5c-33.4,6.3-43.6,55.3-43.6,55.3c-5.7-4.6-11.3-6.2-16.3-6.4v0c0,0,0,0,0,0
					c0,0,0,0,0,0v0c-5,0.1-10.6,1.7-16.3,6.4c0,0-10.1-49-43.6-55.3c-1-0.2-1.9,1-1.9,2.5c0.2,10.7,3.1,48.8,35.9,65.8
					c1.1,0.6-4.4,11.9-4.9,12.7c-3.3,4.9-9,8.1-14.9,9.1c-14.6,2.6-27.8-9.1-36.9-19.1c-15.5-16.9-25-35.6-35.7-55.5
					c-1-1.9-2.8-4.1-4.9-3.6c-1.1,0.2-1.9,1.1-2.5,2c-0.5,0.7-1,1.3-1.5,2c-16.2,23.6-9.5,61.7-2.4,87c13,46.8,62.5,71.5,108,55
					c-1.6,0.6-2.6,11.2-2.8,12.6c-1.1,7.9-1.3,16,0.9,23.7c0.5,1.9,1.7,4.1,3.6,4.1c1.4,0,2.5-1.1,3.2-2.2c5.1-7.4,4-34.9,16.7-35.7
					c12.7,0.8,11.6,28.3,16.7,35.7c0.8,1.1,1.9,2.2,3.2,2.2c2,0,3.1-2.2,3.6-4.1c2.2-7.7,2-15.8,0.9-23.7
					c-0.2-1.4-1.2-12.1-2.8-12.6c45.4,16.5,94.9-8.2,108-55C468.3,314.2,475.1,276.2,458.9,252.6z"/>
			</g>
		</g>
	</g>
	<g>
		<g>
			<circle class="st4" cx="315.5" cy="314.3" r="8.1"/>
		</g>
	</g>
	<g>
		<g>
			<circle class="st4" cx="347.6" cy="314.3" r="8.1"/>
		</g>
	</g>
	<g>
		<path class="st1" d="M327.1,484.2c-54.5,0-105-7.8-149.9-23.3c-36.2-12.5-69-29.9-97.4-51.7C31,371.6,12,333.8,11.2,332.3
			c-2-4-1.7-8.8,0.7-12.6c1.1-1.7,27.4-42.5,80.3-83.4C141,198.5,222.6,153.5,334,154c111.3,0.5,194.4,45.3,244.5,82.7
			c54.3,40.6,82.1,80.9,83.3,82.6c3.1,4.5,3,10.6-0.3,15c-1.2,1.6-29.1,38.4-84.4,75.4C526.3,443.7,441.6,484.2,327.1,484.2z
			 M38,327.2c7.2,11.6,25.5,37.2,58.6,62.4c26.2,19.9,56.4,35.8,89.8,47.2c42,14.3,89.3,21.6,140.6,21.6
			c107.6,0,187.1-37.9,234.8-69.6c37.8-25.1,62.2-50.6,72.9-62.7c-10.4-13.2-34.9-41.4-72.4-69.4c-29.9-22.3-62.2-40-95.9-52.8
			c-42.1-15.9-86.7-24.1-132.5-24.3c-45.8-0.2-90,7.7-131.4,23.5c-33.2,12.7-64.7,30.4-93.7,52.7C70.9,285.1,47.2,314.7,38,327.2z
			 M22.8,326.6L22.8,326.6L22.8,326.6z"/>
	</g>
</g>
</svg>
