<?xml version="1.0" encoding="utf-8"?>
<!-- Generator: Adobe Illustrator 27.5.0, SVG Export Plug-In . SVG Version: 6.00 Build 0)  -->
<svg version="1.1" id="Layer_1" xmlns="http://www.w3.org/2000/svg" xmlns:xlink="http://www.w3.org/1999/xlink" x="0px" y="0px"
	 viewBox="0 0 1000 1000" style="enable-background:new 0 0 1000 1000;" xml:space="preserve">
<style type="text/css">
	.st0{fill:#FDF1DE;}
	.st1{fill:#694C70;}
	.st2{fill:#FAAD97;}
	.st3{fill:#2D1F32;}
	.st4{fill:#EC1A24;}
</style>
<g>
	<g>
		<path class="st0" d="M88.7,588.6c1.5,2.1,2.2,5.3,2.2,9.6c0,4.3-0.1,7.8-0.4,10.4c-0.3,2.7-0.7,5.2-1.3,7.7
			c-1.2,5.6-2.9,9.8-5.1,12.6c-1.9-9.8-4.3-16.8-7.3-21c-3.1-4.3-7.2-6.4-12.3-6.4c-5.1,0-9,1-11.8,2.9c-2.8,1.9-5,4.5-6.5,7.6
			c-2.5,5.2-3.8,12.9-3.8,23.1c0,10.2,1.2,19.5,3.5,27.9c2.3,8.5,5.6,15.7,9.9,21.8c9,12.9,20.7,19.4,35.1,19.4
			c-0.2,2.3-1.4,4.3-3.6,5.9c-0.7,0.5-1.4,0.8-2.1,0.9c-18.4,0-33.4-6.8-45.1-20.3c-12.3-14.4-18.5-34.1-18.5-58.9
			c0-13,3.8-22.8,11.4-29.3c6.8-5.8,16-8.7,27.7-8.7l12.7,0.2c6,0,10.2-0.9,12.6-2.6C87,590.8,87.9,589.8,88.7,588.6z"/>
		<path class="st0" d="M105.6,710.4c2.3-8,3.5-21.8,3.5-41.3c0-13.9-1.1-23.4-3.4-28.5c-0.9-2.1-2.5-4.4-4.9-7.1h27
			c-0.9,3.2-1.6,7.6-2.2,13.2c4.8-6,11.4-10.2,19.9-12.7c3.7-1.1,6.3-2.7,8-5c1.7,4,2.5,7.5,2.5,10.4c0,2.9-0.2,5.6-0.5,8
			c-0.3,2.5-0.8,4.9-1.4,7.2c-1.3,5-3.1,8.9-5.3,11.7c-1.9-9.9-4.8-15.7-8.8-17.4c-4.6-2-9,0.7-13.4,8.1c-0.9,1.5-1.7,3.1-2.3,4.9
			c-0.1,1.2-0.1,2.4-0.1,3.6s0,2.4,0,3.7c0,19.5,1.2,33.3,3.5,41.3H105.6z"/>
		<path class="st0" d="M208.4,685.2l0.1-16.9c0-10.6-0.3-17.5-0.8-20.8c-0.6-3.2-1-5.5-1.3-6.8c-0.3-1.3-0.7-2.5-1.2-3.6l-1.4-3.6
			h22.5l-0.4,3.5c-0.3,2.4-0.5,6-0.6,10.7l-0.3,11.6c-0.3,8.9-0.4,17.2-0.4,24.9c0,7.7-0.5,14.3-1.4,19.8
			c-0.9,5.5-2.2,10.3-3.8,14.5c-1.6,4.2-3.4,7.8-5.4,10.8c-2,3-4.2,5.5-6.4,7.6c-3.9,3.7-8.2,6.3-12.9,7.9c-1-0.4-2-1.2-2.9-2.2
			c-0.9-1.1-1.5-2.1-1.7-3.1c4.5-2.3,8-5.8,10.7-10.5c3.8-6.7,6.2-16.4,7.2-29c-5.9,8.1-13.1,12.1-21.7,12.1
			c-6.1,0-10.8-2.4-14.2-7.2c-3.2-4.6-4.8-11-4.8-19v-10.3c0-2.3,0-4.6-0.1-7v-6.9c-0.1-4.4-0.3-7.9-0.5-10.3
			c-0.2-2.5-0.5-4.5-0.8-6.2c-0.3-1.6-0.6-3.1-1-4.4c-0.4-1.3-0.9-2.5-1.4-3.6l-1.7-3.5H185c-1.3,7.3-2,21-2,41.2
			c0,8.2,0.4,13.7,1.3,16.4c0.9,2.7,1.9,4.7,3.2,6c1.3,1.2,3,1.9,5,1.9c2,0,3.8-0.3,5.4-1c1.5-0.6,3-1.5,4.2-2.5
			c2.5-1.9,4.6-4.6,6.2-8V685.2z"/>
		<path class="st0" d="M260.9,638.4c5.7-4.3,12.8-6.4,21.3-6.4c12.1,0,20,5,23.7,15c1.2,3.3,1.8,7.4,1.8,12.4c0,5-0.6,9.9-1.7,14.6
			s-2.7,9-4.8,12.8c-2,3.8-4.4,7.2-7.2,10c-2.8,2.9-5.8,5.3-9,7.2c-6.5,3.9-13.4,6-20.7,6.2c0.1,2.7,0.3,5.4,0.5,8.1l0.8,8.1
			c0.5,5.5,2,10.1,4.7,13.9l2.6,3.5H245c1.4-4.9,2.2-9.7,2.5-14.6c0.2-4.9,0.4-9,0.5-12.5c0.1-3.5,0.2-7.1,0.3-10.8
			c0.2-8.6,0.3-16.2,0.3-22.7c0-20.9-0.7-33.7-2-38.4c-0.8-2.9-1.9-5.2-3.1-6.9l-3.2-4.5h20.5C260.5,634.6,260.5,636.2,260.9,638.4z
			 M288.7,661.5c0-14.6-3.7-21.9-11-21.9c-3.7,0-6.7,1.6-9.1,4.9c-2.6,3.5-4,8.3-4,14.4L264,695v4.2c0,1.4,0,2.8,0.1,4.2
			c7.4-1.1,13.3-5.5,17.9-13.2C286.4,682.5,288.7,673,288.7,661.5z"/>
		<path class="st0" d="M346.8,603.1c-1.1,3.9-1.6,8.6-1.6,14s0.1,8.9,0.3,10.5c0.2,1.5,0.6,2.7,1.1,3.7c1,1.5,2.8,2.3,5.6,2.3h20.4
			c0,2.8-0.7,5-2.1,6.5c-2.5,2.7-5.5,4.1-9.1,4.1c-1.8,0-3.4-0.3-4.7-0.8c-2.5-1-4.4-1.5-5.8-1.5c-1.4,0-2.5,0.3-3.3,0.8
			c-0.9,0.5-1.5,1.3-2.1,2.3c-0.9,1.8-1.4,5.8-1.4,12c0,6.1,0.2,12.4,0.6,18.9c0.4,6.4,1.3,11.8,2.9,16.2c1.5,4.3,3.8,7.6,6.9,9.8
			c3.1,2.2,7.4,3.3,12.8,3.3c0,1.6-1.1,3.5-3.2,5.6c-0.6,0.6-1,1-1.4,1.2c-9,0-15.7-1.1-20.2-3.2c-5.1-2.5-8.8-7.1-11-13.6
			c-2.2-6.6-3.3-16.4-3.3-29.3c0-11.3-0.3-18-0.9-20.1c-0.6-2.1-1.2-3.4-1.7-4.1c-0.6-0.8-2.1-1.7-4.4-2.8c3.1-2.4,6.3-6.8,9.4-13.3
			l3.8-8c2.7-6.1,5-10,6.9-11.8C343.3,604,345.1,603.1,346.8,603.1z"/>
		<path class="st0" d="M384.1,710.4c2.3-8,3.5-21.8,3.5-41.3c0-13.8-1.2-23.2-3.7-28.4c-0.6-1.3-1.3-2.5-2.1-3.7l-2.5-3.5h27
			c-2.2,8.4-3.3,21.3-3.3,38.7c0,17.4,1.2,30.2,3.5,38.2H384.1z M404.8,613.1c-1,1.7-2.3,3.1-3.8,4.2c-1.5,1.1-3.1,1.7-5,1.7
			c-1.9,0-3.6-0.6-5-1.7c-1.5-1.1-2.7-2.6-3.7-4.2c-2.1-3.5-3.1-7.1-3.1-11c0-4.7,2.1-7.8,6.4-9.4c1.5-0.6,3.4-0.8,5.6-0.8
			c6,0,9.8,2.1,11.3,6.4c0.5,1.2,0.7,2.6,0.7,4.1c0,1.5-0.3,3.2-0.8,5.2C406.6,609.6,405.8,611.4,404.8,613.1z"/>
		<path class="st0" d="M469.9,704.4c-5.5,5-12.6,7.5-21.1,7.5c-7.8,0-14-2.3-18.5-6.8c-4.7-4.7-7-11.3-7-19.8
			c0-8.5,1.2-15.9,3.7-22.3c2.5-6.4,5.8-11.7,9.8-16c8-8.5,17.9-13,29.5-13.5c-0.4-15.6-0.9-24.6-1.6-26.9c-0.6-2.3-1.3-4.1-1.9-5.5
			c-0.6-1.3-1.4-2.6-2.2-3.7l-2.6-3.6H486c-1.4,5.1-2.2,10.1-2.5,14.9c-0.2,4.8-0.4,9.1-0.5,12.7c-0.1,3.7-0.2,7.5-0.2,11.5
			c-0.2,6.7-0.2,13.4-0.2,20c0,6.6,0,11.6,0,15c0,3.4,0.1,6.6,0.2,9.7c0.3,11.4,0.7,18.2,1.3,20.4c0.6,2.2,1.2,3.9,1.9,5.2
			c0.6,1.3,1.4,2.5,2.2,3.6l2.6,3.5H471L469.9,704.4z M466.5,682.5c0.2-7.8,0.3-15.1,0.3-22c0-6.8-0.1-13.3-0.2-19.5
			c-7.4,1.1-13.2,5.5-17.7,13c-4.4,7.5-6.6,17-6.6,28.4c0,6.8,0.5,11.5,1.6,14.2c1,2.7,2.3,4.7,3.7,5.9c1.4,1.2,3.2,1.9,5.3,1.9
			s3.9-0.4,5.4-1.3c1.5-0.8,2.9-2.1,4.1-3.7C464.9,696,466.3,690.3,466.5,682.5z"/>
		<path class="st0" d="M572.6,670.1c-0.7,5.3-1,9.5-1,12.6c0,3.1,0.4,6,1.1,8.6c0.8,2.6,1.9,4.9,3.3,6.9c3,4.1,6.9,6.2,11.6,6.2
			c8.9,0,13.4-4.9,13.4-14.8c0-7.9-4.6-16.3-13.8-25.2l-7.9-7.7c-7-6.7-11.7-12.1-14.2-16.1c-5-8-7.5-16-7.5-23.9
			c0-6.4,2.1-11.9,6.2-16.2c5-5.3,12.3-8,21.7-8c3.7,0,6.5,0.2,8.4,0.5c3.5,0.7,5.8,1,7,1c2.9,0,5.2-0.9,6.9-2.7
			c0.6-0.7,1.3-1.5,2-2.6c3.7,2.1,5.6,9.7,5.6,22.9c0,8.4-0.8,14.6-2.5,18.7c-0.6,1.4-1.2,2.2-1.9,2.6c-0.8-7.7-3.3-14.5-7.5-20.6
			c-4.9-7.1-10.5-10.7-16.9-10.7c-5.5,0-8.9,2.5-10.1,7.5c-0.4,1.4-0.5,3.2-0.5,5.3c0,2.1,0.6,4.5,1.9,7.2c1.3,2.7,2.9,5.4,5,8
			c2.1,2.7,4.4,5.3,7.1,8c8.1,8.3,13.5,14,16.2,16.9c2.7,2.9,5,6,7.1,9.1c4.6,7.1,6.9,13.9,6.9,20.5c0,8-3.1,14.6-9.3,19.8
			c-6.4,5.3-14.6,8-24.7,8c-8.3,0-15.5-2.1-21.5-6.2c-6.6-4.6-9.9-10.6-9.9-18.1c2-7.1,6.3-12.2,12.9-15.5
			C569.3,671.2,571,670.5,572.6,670.1z"/>
		<path class="st0" d="M686.5,684.6c1.8,1.2,2.7,3.3,2.7,6.4c0,3-0.4,5.7-1.2,8c-0.8,2.3-2.2,4.4-4.3,6.4
			c-4.6,4.5-11.5,6.7-20.9,6.7c-10.9,0-19.1-4-24.8-12c-5-7.2-7.5-16.8-7.5-29c0-12.3,3.4-21.9,10.2-28.9c6.4-6.6,15.2-10,26.2-10
			c7.7,0,13.7,2.2,18,6.7c3.4,3.6,5.1,7.7,5.1,12.3c0,4.6-0.9,8.8-2.7,12.6c-1.8,3.7-4.5,6.9-8,9.6c-7.2,5.6-17.3,8.5-30.2,8.8
			c1.1,10.2,4.3,17,9.6,20.5c1.9,1.2,4.5,1.8,7.7,1.8c3.2,0,6.6-1.7,10.2-5C680.2,696,683.5,691.1,686.5,684.6z M648.7,674.8
			c16-1.1,24.1-8.8,24.1-23.3c0-5.4-1.6-9.1-4.9-11c-1.1-0.6-2.6-0.9-4.4-0.9s-3.7,0.6-5.5,1.7c-1.9,1.1-3.5,2.9-4.8,5.5
			c-2.9,5.5-4.4,14.1-4.4,25.7V674.8z"/>
		<path class="st0" d="M759.3,684.6c1.8,1.2,2.7,3.3,2.7,6.4c0,3-0.4,5.7-1.2,8c-0.8,2.3-2.2,4.4-4.3,6.4
			c-4.6,4.5-11.5,6.7-20.9,6.7c-10.9,0-19.1-4-24.8-12c-5-7.2-7.5-16.8-7.5-29c0-12.3,3.4-21.9,10.2-28.9c6.4-6.6,15.2-10,26.2-10
			c7.7,0,13.7,2.2,18,6.7c3.4,3.6,5.1,7.7,5.1,12.3c0,4.6-0.9,8.8-2.7,12.6c-1.8,3.7-4.5,6.9-8,9.6c-7.2,5.6-17.3,8.5-30.2,8.8
			c1.1,10.2,4.3,17,9.6,20.5c1.9,1.2,4.5,1.8,7.7,1.8c3.2,0,6.6-1.7,10.2-5C753,696,756.3,691.1,759.3,684.6z M721.5,674.8
			c16-1.1,24.1-8.8,24.1-23.3c0-5.4-1.6-9.1-4.9-11c-1.1-0.6-2.6-0.9-4.4-0.9s-3.7,0.6-5.5,1.7c-1.9,1.1-3.5,2.9-4.8,5.5
			c-2.9,5.5-4.4,14.1-4.4,25.7V674.8z"/>
		<path class="st0" d="M798.7,678.2c0,14.7,1,25.5,3,32.3h-22.5c1.4-4.9,2.3-10.7,2.7-17.4c0.8-16.2,1.1-28.8,1.1-37.7
			c0-8.9,0-14.9-0.1-18c-0.1-3.1-0.1-6.2-0.2-9.2c-0.3-10.9-0.8-17.9-1.6-20.8c-0.7-3-1.4-5.1-2.1-6.4c-1-2.1-2.5-4.4-4.6-6.9h27.8
			c-1.4,5.1-2.3,10-2.5,14.5l-0.5,11c-0.4,8.4-0.5,14.7-0.5,19.1s0,7.3,0.1,8.8c0.1,1.5,0.3,2.8,0.6,3.7c0.6,2,2.1,3,4.6,2.9
			c2.5-0.1,4.7-0.6,6.7-1.6s3.6-2.1,4.9-3.6c2.5-2.8,3.8-5.9,3.8-9.1s-0.4-5.3-1.1-6.3h22c-0.6,1.2-1.2,2.4-1.6,3.7
			c-0.5,1.2-1,2.5-1.6,3.8c-3.6,8-9.3,13.8-17.1,17.4c0.5,10.5,4,21,10.4,31.6c6,9.8,12.7,16.6,19.9,20.4h-25.5
			c-5.1-2.4-9.2-10.6-12.3-24.5c-1.1-4.7-1.8-9.3-2.1-13.6c-0.4-4.4-0.9-7.2-1.7-8.6c-0.8-1.3-2.1-2-4.1-2c-3.9,0-5.8,3.6-5.8,10.8
			V678.2z"/>
		<path class="st0" d="M906.3,684.6c1.8,1.2,2.7,3.3,2.7,6.4c0,3-0.4,5.7-1.2,8c-0.8,2.3-2.2,4.4-4.3,6.4
			c-4.6,4.5-11.5,6.7-20.9,6.7c-10.9,0-19.1-4-24.8-12c-5-7.2-7.5-16.8-7.5-29c0-12.3,3.4-21.9,10.2-28.9c6.4-6.6,15.2-10,26.2-10
			c7.7,0,13.7,2.2,18,6.7c3.4,3.6,5.1,7.7,5.1,12.3c0,4.6-0.9,8.8-2.7,12.6c-1.8,3.7-4.5,6.9-8,9.6c-7.2,5.6-17.3,8.5-30.2,8.8
			c1.1,10.2,4.3,17,9.6,20.5c1.9,1.2,4.5,1.8,7.7,1.8c3.2,0,6.6-1.7,10.2-5C900,696,903.3,691.1,906.3,684.6z M868.5,674.8
			c16-1.1,24.1-8.8,24.1-23.3c0-5.4-1.6-9.1-4.9-11c-1.1-0.6-2.6-0.9-4.4-0.9s-3.7,0.6-5.5,1.7c-1.9,1.1-3.5,2.9-4.8,5.5
			c-2.9,5.5-4.4,14.1-4.4,25.7V674.8z"/>
		<path class="st0" d="M927.7,710.4c2.3-8,3.5-21.8,3.5-41.3c0-13.9-1.1-23.4-3.3-28.5c-0.9-2.1-2.5-4.4-4.9-7.1h27
			c-0.9,3.2-1.6,7.6-2.2,13.2c4.8-6,11.4-10.2,19.9-12.7c3.7-1.1,6.3-2.7,8-5c1.7,4,2.5,7.5,2.5,10.4c0,2.9-0.2,5.6-0.5,8
			c-0.3,2.5-0.8,4.9-1.4,7.2c-1.3,5-3.1,8.9-5.3,11.7c-1.9-9.9-4.8-15.7-8.8-17.4c-4.6-2-9,0.7-13.4,8.1c-0.9,1.5-1.7,3.1-2.3,4.9
			c-0.1,1.2-0.1,2.4-0.1,3.6s0,2.4,0,3.7c0,19.5,1.2,33.3,3.5,41.3H927.7z"/>
	</g>
	<g>
		<g>
			<g>
				<path class="st0" d="M185.2,330.6c0,0,106.1-166.2,322.2-165.3c216,0.9,328.4,165.3,328.4,165.3S723.4,480.5,500.3,480.5
					C259.3,480.5,185.2,330.6,185.2,330.6z"/>
			</g>
			<path class="st1" d="M500.3,493.9c-56.5,0-108.7-8.1-155.3-24.1c-37.5-12.9-71.4-30.9-100.8-53.6c-50.5-38.9-70.1-78-70.9-79.6
				c-2.1-4.2-1.8-9.1,0.7-13.1c1.1-1.8,28.4-44,83.1-86.4c50.5-39.1,135-85.6,250.3-85.1c115.2,0.5,201.3,46.9,253.1,85.7
				c56.2,42.1,85,83.7,86.2,85.5c3.2,4.7,3.1,10.9-0.3,15.5c-1.2,1.6-30.1,39.7-87.3,78C706.5,451.9,618.9,493.9,500.3,493.9z
				 M201,331.3c7.5,12,26.4,38.5,60.7,64.6c27.1,20.6,58.4,37.1,93,48.9c43.5,14.8,92.5,22.3,145.5,22.3
				c111.4,0,193.7-39.2,243.1-72.1c39.1-26,64.4-52.3,75.4-64.9c-10.8-13.6-36.1-42.9-75-71.9c-30.9-23-64.4-41.4-99.3-54.6
				c-43.6-16.5-89.7-24.9-137.2-25.1c-47.4-0.2-93.2,8-136,24.3c-34.4,13.1-67,31.5-97,54.6C235.1,287.7,210.6,318.3,201,331.3z
				 M185.2,330.6L185.2,330.6L185.2,330.6z"/>
		</g>
		<g>
			<g>
				<circle class="st2" cx="505" cy="322.9" r="168.2"/>
			</g>
		</g>
		<g>
			<g>
				<g>
					<path class="st3" d="M636.7,254c-0.5-0.7-1-1.4-1.5-2.1c-0.7-0.9-1.5-1.8-2.6-2.1c-2.2-0.5-4,1.8-5.1,3.8
						c-11.2,20.6-21,40-37,57.5c-9.4,10.3-23.1,22.4-38.2,19.8c-6.1-1.1-11.9-4.3-15.4-9.4c-0.6-0.9-6.3-12.5-5.1-13.2
						c33.9-17.6,37-57.1,37.1-68.2c0-1.6-0.9-2.8-1.9-2.6c-34.6,6.5-45.1,57.3-45.1,57.3c-5.9-4.8-11.7-6.4-16.9-6.6v0c0,0,0,0,0,0
						s0,0,0,0v0c-5.1,0.1-10.9,1.8-16.9,6.6c0,0-10.5-50.7-45.1-57.3c-1-0.2-2,1-1.9,2.6c0.2,11.1,3.2,50.6,37.1,68.2
						c1.2,0.6-4.5,12.3-5.1,13.2c-3.5,5.1-9.3,8.4-15.4,9.4c-15.1,2.7-28.8-9.4-38.2-19.8c-16-17.5-25.8-36.9-37-57.5
						c-1.1-2-2.9-4.3-5.1-3.8c-1.1,0.3-1.9,1.2-2.6,2.1c-0.5,0.7-1,1.4-1.5,2.1c-16.8,24.4-9.8,63.8-2.5,90.1
						c13.5,48.5,64.8,74,111.8,57c-1.7,0.6-2.6,11.6-2.8,13.1c-1.2,8.1-1.3,16.5,1,24.5c0.6,2,1.7,4.2,3.7,4.3
						c1.4,0,2.5-1.1,3.3-2.3c5.3-7.7,4.2-36.1,17.3-37c13.2,0.9,12,29.3,17.3,37c0.8,1.2,1.9,2.3,3.3,2.3c2,0,3.2-2.3,3.7-4.3
						c2.3-8,2.1-16.4,1-24.5c-0.2-1.5-1.2-12.5-2.8-13.1c47,17.1,98.3-8.5,111.8-57C646.5,317.9,653.5,278.5,636.7,254z"/>
				</g>
			</g>
		</g>
		<g>
			<g>
				<circle class="st4" cx="488.3" cy="317.9" r="8.4"/>
			</g>
		</g>
		<g>
			<g>
				<circle class="st4" cx="521.6" cy="317.9" r="8.4"/>
			</g>
		</g>
		<g>
			<path class="st1" d="M500.3,493.9c-56.5,0-108.7-8.1-155.3-24.1c-37.5-12.9-71.4-30.9-100.8-53.6c-50.5-38.9-70.1-78-70.9-79.6
				c-2.1-4.2-1.8-9.1,0.7-13.1c1.1-1.8,28.4-44,83.1-86.4c50.5-39.1,135-85.6,250.3-85.1c115.2,0.5,201.3,46.9,253.1,85.7
				c56.2,42.1,85,83.7,86.2,85.5c3.2,4.7,3.1,10.9-0.3,15.5c-1.2,1.6-30.1,39.7-87.3,78C706.5,451.9,618.9,493.9,500.3,493.9z
				 M201,331.3c7.5,12,26.4,38.5,60.7,64.6c27.1,20.6,58.4,37.1,93,48.9c43.5,14.8,92.5,22.3,145.5,22.3
				c111.4,0,193.7-39.2,243.1-72.1c39.1-26,64.4-52.3,75.4-64.9c-10.8-13.6-36.1-42.9-75-71.9c-30.9-23-64.4-41.4-99.3-54.6
				c-43.6-16.5-89.7-24.9-137.2-25.1c-47.4-0.2-93.2,8-136,24.3c-34.4,13.1-67,31.5-97,54.6C235.1,287.7,210.6,318.3,201,331.3z
				 M185.2,330.6L185.2,330.6L185.2,330.6z"/>
		</g>
	</g>
</g>
</svg>
