<?xml version="1.0" encoding="utf-8"?>
<!-- Generator: Adobe Illustrator 27.5.0, SVG Export Plug-In . SVG Version: 6.00 Build 0)  -->
<svg version="1.1" id="Layer_1" xmlns="http://www.w3.org/2000/svg" xmlns:xlink="http://www.w3.org/1999/xlink" x="0px" y="0px"
	 viewBox="0 0 1634.8 1238.2" style="enable-background:new 0 0 1634.8 1238.2;" xml:space="preserve">
<style type="text/css">
	.st0{fill:#FDF1DE;}
	.st1{fill:#694C70;}
	.st2{fill:#FAAD97;}
	.st3{fill:#2D1F32;}
	.st4{fill:#EC1A24;}
</style>
<g>
	<g>
		<g>
			<path class="st0" d="M345.2,342.2c0,0,158.6-248.4,481.3-247s490.6,247,490.6,247s-167.9,224-501.3,224
				C455.8,566.1,345.2,342.2,345.2,342.2z"/>
		</g>
		<path class="st1" d="M815.9,586.1c-84.3,0-162.4-12.1-231.9-36.1c-56-19.3-106.7-46.2-150.6-80C358,411.8,328.6,353.5,327.4,351
			c-3.1-6.2-2.7-13.7,1.1-19.5c1.7-2.7,42.4-65.7,124.2-129C528.1,144,654.3,74.5,826.6,75.3c172.2,0.7,300.7,70,378.2,128
			c84,62.8,127,125.1,128.8,127.7c4.8,7,4.6,16.4-0.5,23.2c-1.8,2.4-45,59.4-130.5,116.6C1124,523.3,993.1,586.1,815.9,586.1z
			 M368.8,343.2c11.2,17.9,39.4,57.5,90.7,96.6c40.5,30.8,87.2,55.4,139,73.1c65,22.1,138.1,33.4,217.4,33.4
			c166.4,0,289.4-58.6,363.2-107.7c58.4-38.9,96.3-78.2,112.7-97c-16.1-20.4-53.9-64.1-112.1-107.3c-46.2-34.4-96.2-61.9-148.4-81.6
			c-65.1-24.6-134-37.2-204.9-37.5c-70.8-0.3-139.2,11.9-203.2,36.3c-51.4,19.6-100.1,47-144.9,81.5
			C419.7,278.1,383.1,323.8,368.8,343.2z M345.2,342.2L345.2,342.2L345.2,342.2z"/>
	</g>
	<g>
		<g>
			<circle class="st2" cx="822.9" cy="330.7" r="251.4"/>
		</g>
	</g>
	<g>
		<g>
			<g>
				<path class="st3" d="M1019.8,227.8c-0.7-1.1-1.5-2.1-2.3-3.1c-1-1.4-2.3-2.7-3.9-3.1c-3.3-0.8-6,2.6-7.6,5.6
					c-16.7,30.7-31.3,59.7-55.3,85.9c-14.1,15.4-34.5,33.5-57.1,29.5c-9.1-1.6-17.8-6.5-23-14.1c-0.9-1.3-9.4-18.7-7.6-19.6
					c50.6-26.3,55.2-85.3,55.5-101.8c0-2.4-1.3-4.2-2.9-3.9c-51.7,9.8-67.4,85.5-67.4,85.5c-8.9-7.1-17.5-9.6-25.2-9.8v0
					c0,0,0,0,0,0s0,0,0,0v0c-7.7,0.2-16.4,2.7-25.2,9.8c0,0-15.7-75.8-67.4-85.5c-1.6-0.3-2.9,1.5-2.9,3.9
					c0.3,16.5,4.8,75.5,55.5,101.8c1.8,0.9-6.7,18.4-7.6,19.6c-5.2,7.6-13.9,12.5-23,14.1c-22.6,4-43-14.1-57.1-29.5
					c-23.9-26.2-38.6-55.1-55.3-85.9c-1.6-3-4.3-6.4-7.6-5.6c-1.7,0.4-2.9,1.8-3.9,3.1c-0.8,1-1.6,2.1-2.3,3.1
					c-25.1,36.5-14.6,95.4-3.7,134.6c20.2,72.4,96.7,110.6,167,85.1c-2.5,0.9-3.9,17.3-4.3,19.5c-1.7,12.2-1.9,24.7,1.4,36.6
					c0.8,2.9,2.6,6.3,5.6,6.4c2.1,0,3.8-1.7,5-3.4c8-11.4,6.2-53.9,25.9-55.2c19.6,1.3,17.9,43.8,25.9,55.2c1.2,1.7,2.9,3.4,5,3.4
					c3,0,4.8-3.4,5.6-6.4c3.4-11.9,3.1-24.5,1.4-36.6c-0.3-2.2-1.8-18.6-4.3-19.5c70.2,25.5,146.8-12.8,167-85.1
					C1034.4,323.1,1044.8,264.3,1019.8,227.8z"/>
			</g>
		</g>
	</g>
	<g>
		<g>
			<circle class="st4" cx="798" cy="323.2" r="12.5"/>
		</g>
	</g>
	<g>
		<g>
			<circle class="st4" cx="847.7" cy="323.2" r="12.5"/>
		</g>
	</g>
	<g>
		<path class="st1" d="M815.9,586.1c-84.3,0-162.4-12.1-231.9-36.1c-56-19.3-106.7-46.2-150.6-80C358,411.8,328.6,353.5,327.4,351
			c-3.1-6.2-2.7-13.7,1.1-19.5c1.7-2.7,42.4-65.7,124.2-129C528.1,144,654.3,74.5,826.6,75.3c172.2,0.7,300.7,70,378.2,128
			c84,62.8,127,125.1,128.8,127.7c4.8,7,4.6,16.4-0.5,23.2c-1.8,2.4-45,59.4-130.5,116.6C1124,523.3,993.1,586.1,815.9,586.1z
			 M368.8,343.2c11.2,17.9,39.4,57.5,90.7,96.6c40.5,30.8,87.2,55.4,139,73.1c65,22.1,138.1,33.4,217.4,33.4
			c166.4,0,289.4-58.6,363.2-107.7c58.4-38.9,96.3-78.2,112.7-97c-16.1-20.4-53.9-64.1-112.1-107.3c-46.2-34.4-96.2-61.9-148.4-81.6
			c-65.1-24.6-134-37.2-204.9-37.5c-70.8-0.3-139.2,11.9-203.2,36.3c-51.4,19.6-100.1,47-144.9,81.5
			C419.7,278.1,383.1,323.8,368.8,343.2z M345.2,342.2L345.2,342.2L345.2,342.2z"/>
	</g>
</g>
<g>
	<g>
		<path class="st0" d="M231.8,965.4c-1.6,13.1-2.5,23.5-2.5,31.2s0.9,14.9,2.8,21.4c1.9,6.5,4.6,12.2,8.1,17
			c7.6,10.2,17.1,15.3,28.7,15.3c22.1,0,33.2-12.2,33.2-36.6c0-19.6-11.4-40.5-34.2-62.5l-19.6-19.1c-17.2-16.6-29-29.9-35.3-40
			c-12.5-19.9-18.7-39.6-18.7-59.3c0-16,5.2-29.4,15.5-40.2c12.5-13.2,30.4-19.8,53.8-19.8c9.2,0,16.1,0.4,20.8,1.3
			c8.7,1.6,14.5,2.5,17.4,2.5c7.3,0,13-2.3,17-6.8c1.5-1.6,3.1-3.8,4.9-6.4c9.2,5.2,13.8,24.1,13.8,56.8c0,20.9-2.1,36.3-6.2,46.2
			c-1.4,3.4-3,5.5-4.7,6.4c-2-19-8.2-36-18.5-51c-12.1-17.6-26-26.4-41.9-26.4c-13.6,0-22,6.2-25.1,18.7c-0.9,3.5-1.3,7.9-1.3,13.1
			c0,5.2,1.6,11.2,4.7,17.8c3.1,6.7,7.3,13.3,12.4,19.9c5.1,6.6,11,13.2,17.6,19.9c20.1,20.6,33.5,34.6,40.1,41.9
			c6.6,7.3,12.5,14.8,17.6,22.7c11.3,17.5,17,34.4,17,50.8c0,19.8-7.7,36.1-23,49.1c-15.9,13.2-36.2,19.8-61.2,19.8
			c-20.6,0-38.4-5.2-53.2-15.5c-16.4-11.3-24.5-26.3-24.5-44.9c4.9-17.5,15.6-30.3,32.1-38.5C223.7,968,227.9,966.4,231.8,965.4z"/>
		<path class="st0" d="M390.7,1065.4c5.8-19.9,8.7-54,8.7-102.5c0-34.1-3-57.6-9.1-70.4c-1.5-3.3-3.2-6.3-5.1-9.1l-6.2-8.7h67
			c-5.5,20.8-8.3,52.8-8.3,96s2.9,74.8,8.7,94.7H390.7z M441.9,824c-2.6,4.2-5.7,7.6-9.3,10.5c-3.7,2.8-7.8,4.2-12.5,4.2
			c-4.7,0-8.8-1.4-12.5-4.2c-3.7-2.8-6.7-6.3-9.2-10.5c-5.2-8.6-7.7-17.6-7.7-27.2c0-11.6,5.3-19.3,15.9-23.2
			c3.8-1.4,8.4-2.1,13.8-2.1c15,0,24.3,5.3,27.9,15.9c1.1,3,1.7,6.4,1.7,10.1c0,3.7-0.7,8-2.1,12.9
			C446.5,815.3,444.5,819.8,441.9,824z"/>
		<path class="st0" d="M591.2,1060.9c-12.2,5.5-24.2,8.3-36.1,8.3c-11.8,0-21.6-1.5-29.4-4.5c-7.8-3-14.5-7.4-20-13.2
			c-11.6-12.1-17.4-28.8-17.4-50c0-41,11.8-73,35.3-95.9c21-20.5,46.3-30.8,75.9-30.8h43c-3.5,12.2-5.5,23.9-6,35.1
			c-0.5,11.2-0.8,20.4-1,27.5c-0.2,7.1-0.3,14.3-0.5,21.6c-0.3,14.6-0.4,29.5-0.4,44.7c0,15.2-1.2,30-3.6,44.3
			c-2.4,14.3-5.6,26.8-9.5,37.5c-4,10.7-8.5,19.8-13.6,27.4c-5.1,7.6-10.4,13.9-15.9,19.1c-9.1,8.4-19.6,14.6-31.5,18.5
			c-2.5-1-4.9-2.8-7.3-5.5c-2.3-2.6-3.7-5.2-4.2-7.7c14.3-5.8,25.7-20.2,34.2-43.2C586.3,1085,589,1074,591.2,1060.9z M595.3,1002.4
			l0.6-56.6c0-22.8-0.8-40-2.5-51.7c-17.9,3.5-32,14.1-42.3,31.7c-10.4,18-15.7,40.7-15.7,68.1c0,17,1.3,29,3.9,36.1
			c2.6,7,5.7,12.2,9.2,15.5c3.6,3.3,7.9,4.9,13,4.9c5.1,0,9.6-1,13.5-3c3.9-2,7.4-5,10.4-9.1C592,1029.5,595.3,1017.6,595.3,1002.4z
			"/>
		<path class="st0" d="M681.4,1065.4c5.8-19.9,8.7-54,8.7-102.5c0-34.5-3-58-9.1-70.6c-1.5-3.1-3.2-6.1-5.1-8.9l-6.2-8.7h65.5
			c-1.9,6.3-3.1,12.2-3.8,17.7l-1.5,13.6c15.2-23.4,34.6-35.1,58.1-35.1c15.2,0,27.1,5.9,35.7,17.7c8.3,11.6,12.5,27.2,12.5,47v20.2
			c0,34.6,0.3,55.7,0.9,63.4c0.6,7.7,1.1,13.5,1.5,17.6c0.4,4,0.8,7.6,1.3,10.8c0.9,5.9,2.2,11.8,4,17.7h-55.3
			c5.8-19.9,8.7-54,8.7-102.5c0-19.4-1.2-32.7-3.7-39.8c-2.5-7.2-5.4-12.3-8.8-15.4c-3.4-3.1-7.9-4.6-13.4-4.6
			c-10.2,0-19.4,4-27.7,12.1c-7.2,6.9-12.6,15.7-16.4,26.4c-0.3,3.4-0.4,6.9-0.4,10.6v10.8c0,48.4,2.9,82.6,8.7,102.5H681.4z"/>
		<path class="st0" d="M1168.7,968.6l0.9-72.5c0-50.7-1.9-83.1-5.7-97.2c-1.8-6.8-3.9-11.8-6.3-14.9c-2.5-3.1-4.4-5.6-5.9-7.4h61.9
			l-4,5.3c-5.7,8.3-8.8,17.7-9.4,28.1c-0.6,10.4-1.1,21-1.4,31.7c-0.3,10.7-0.6,21.3-0.8,31.9c-0.3,17.7-0.4,37.6-0.4,59.5v23
			c0,40.6-6.5,69.8-19.6,87.4c-13,17.1-34.1,25.7-63.4,25.7c-56.8,0-85-36.4-84.8-109.3l0.2-141.4c0-19.9-3.5-33.8-10.6-41.9h71.5
			c-7.4,8.9-11.1,21.6-11.1,38.1c0,9.6-0.1,19.4-0.2,29.4l-0.8,60.4c-0.1,9.9-0.2,20.2-0.2,30.8c0,37.9,1.1,61.9,3.4,72
			c2.3,10.1,5,18,8.3,23.7c7.5,12.8,18.7,19.3,33.6,19.3c22.9,0,37-16.7,42.3-50.2C1167.9,990.2,1168.7,979.7,1168.7,968.6z"/>
		<path class="st0" d="M1286.7,886.8c14.1-10.6,31.7-15.9,52.9-15.9c29.9,0,49.5,12.4,58.7,37.2c3,8.2,4.5,18.5,4.5,30.9
			c0,12.4-1.4,24.5-4.2,36.2c-2.8,11.8-6.8,22.4-11.8,31.8c-5,9.4-11,17.7-17.8,24.9c-6.9,7.2-14.3,13.2-22.4,17.9
			c-16.1,9.7-33.2,14.8-51.3,15.3c0.3,6.8,0.6,13.5,1.1,20l1.9,20c1.1,13.6,5,25.1,11.7,34.5l6.4,8.7h-68.9
			c3.5-12.1,5.6-24.2,6.1-36.2c0.6-12.1,1-22.4,1.3-31c0.3-8.6,0.5-17.5,0.7-26.7c0.5-21.4,0.8-40.1,0.8-56.2
			c0-51.8-1.6-83.6-4.9-95.1c-2-7.2-4.6-12.9-7.7-17.2l-7.9-11.1h50.8C1285.8,877.3,1285.8,881.3,1286.7,886.8z M1355.6,944
			c0-36.1-9.1-54.2-27.4-54.2c-9.1,0-16.6,4-22.7,12.1c-6.5,8.7-9.8,20.6-9.8,35.7l-1.3,89.5v10.4c0,3.4,0.1,6.9,0.2,10.4
			c18.2-2.8,33-13.7,44.4-32.8C1350.1,996.1,1355.6,972.5,1355.6,944z"/>
	</g>
</g>
</svg>
